<svg height="200pt" preserveAspectRatio="xMidYMid meet" viewBox="0 0 512 512" width="512pt" fill="#6940cd" xmlns="http://www.w3.org/2000/svg"><g transform="matrix(.1 0 0 -.1 0 512)"><path d="m2063 5106c-102-33-176-97-222-196-24-52-26-65-29-236-3-168-2-185 17-223 14-27 35-48 61-61 36-18 58-20 280-20h240v-175-175h-295c-181 0-314-4-347-11-172-37-311-176-347-347-7-36-11-288-11-797v-745h1150 1150v745c0 517-3 760-11 797-37 172-176 311-347 347-32 7-169 11-347 11h-295v175 175h240c222 0 244 2 280 20 26 13 47 34 61 61 19 38 20 55 17 223-3 171-4 184-29 237-37 79-90 133-167 171l-67 33-470 2c-369 2-479-1-512-11z"/><path d="m388 2799c-43-22-78-81-78-129 0-50 35-107 80-130 31-16 59-20 129-20h90l3-418 3-417 33-67c38-77 92-130 171-166 48-23 73-27 174-30l117-4v-39c0-58 33-115 80-139 38-20 57-20 822-20h783l330-331c182-182 347-339 367-350 48-24 89-24 138 1 69 35 98 124 64 193-9 18-118 134-242 260l-227 227h333c314 0 335 1 372 20 47 24 80 81 80 139v39l118 4c100 3 125 7 173 30 79 36 133 89 171 166l33 67 3 417 3 418h90c70 0 98 4 129 20 45 23 80 80 80 130s-35 107-80 130c-37 19-58 20-370 20s-333-1-370-20c-45-23-80-80-80-130s35-107 80-130c31-16 59-20 130-20h90v-384c0-336-2-387-16-400-12-13-41-16-149-16h-133l-52 35c-102 69-31 65-1300 65s-1198 4-1300-65l-52-35h-133c-108 0-137 3-149 16-14 13-16 64-16 400v384h90c71 0 99 4 130 20 45 23 80 80 80 130s-35 107-80 130c-37 19-58 20-372 20-312-1-335-2-370-21z"/><path d="m2180 610v-310h-275c-257 0-279-1-315-20-45-23-80-80-80-130s35-107 80-130c38-20 57-20 970-20s932 0 970 20c45 23 80 80 80 130s-35 107-80 130c-36 19-58 20-315 20h-275v310 310h-380-380z"/></g></svg>
