<svg height="200pt" preserveAspectRatio="xMidYMid meet" viewBox="0 0 512 512" width="512pt" fill="#6940cd" xmlns="http://www.w3.org/2000/svg"><g transform="matrix(.1 0 0 -.1 0 512)"><path d="m3215 5106c-16-8-185-170-375-360l-345-346 953-952 952-953 350 350c272 271 353 358 362 387 20 68-10 141-72 173-34 18-102 20-133 4-12-6-83-71-157-145l-135-134-105 105-104 105 130 132c72 73 137 144 143 156 18 33 16 104-4 141-17 35-63 67-107 76-58 13-98-12-241-153l-137-136-105 104-104 104 138 141c148 150 161 172 147 249-17 92-124 143-209 100-18-9-91-74-162-145l-130-129-105 105-104 105 136 137c158 160 174 189 144 268-10 24-29 54-43 65-27 21-87 41-106 35-7-2-25-6-41-10-20-4-76-52-168-143l-139-136-104 104-105 105 134 135c74 74 139 145 145 157s11 42 11 66c0 105-110 176-205 133z"/><path d="m2240 4138c-51-63-103-170-125-253-19-76-19-233 0-310 8-33 34-98 56-145 41-85 44-87 608-651s566-567 651-608c47-22 112-48 145-56 76-19 234-19 310 0 80 20 210 86 263 132l42 38-953 953-954 954z"/><path d="m1435 3289c-746-791-766-812-831-909-370-555-251-1310 271-1715 241-186 497-275 796-275 259 0 493 71 709 214 97 65 118 85 909 831l381 360-75 12c-143 22-288 78-405 156-63 42-1162 1139-1215 1212-86 121-145 266-168 420l-12 75zm598-924c181-47 308-186 340-370 15-86-1-177-47-269-31-63-65-101-298-333-236-235-271-265-333-295-67-32-75-33-190-33-116 0-122 1-190 34-92 45-176 129-218 218-30 65-32 74-32 188 0 115 1 123 33 190 30 62 60 97 294 332 275 276 313 306 429 337 71 19 141 19 212 1z"/><path d="m1865 2061c-22-10-65-44-95-75l-55-56 108-107 107-108 56 55c58 57 93 117 94 159 0 48-38 108-84 130-52 26-79 26-131 2z"/><path d="m1444 1658c-73-76-84-95-84-153 0-56 21-96 66-126 37-24 120-25 154-3 37 25 130 117 130 129 0 13-192 205-206 205-5 0-32-24-60-52z"/><path d="m265 878c-53-76-71-256-35-358l19-55-108-110c-60-60-116-124-125-142-61-122 75-258 197-197 18 9 82 65 142 125l110 108 55-19c62-22 182-26 245-9 57 16 135 50 135 59 0 5-25 23-55 40-184 105-451 375-536 542-11 21-21 38-24 38-2 0-11-10-20-22z"/></g></svg>
