<svg height="200pt" preserveAspectRatio="xMidYMid meet" viewBox="0 0 512 512" width="512pt" fill="#6940cd" xmlns="http://www.w3.org/2000/svg"><g transform="matrix(.1 0 0 -.1 0 512)"><path d="m2945 5105c-275-38-513-144-758-338-199-158-308-207-458-207-203 0-404 128-560 358l-57 82-17-42c-155-381-219-688-194-929 5-57 12-105 13-106 10-11 158-34 246-39 278-17 619 65 1095 264 412 171 699 236 1055 236 197 0 281-9 435-45 401-94 773-344 1059-711 37-49 69-88 71-88 1 0-8 44-20 98-66 274-197 548-373 782-78 102-270 294-365 363-354 261-778 377-1172 322z"/><path d="m3087 4195c-234-29-453-89-691-189-420-176-662-252-926-291-119-18-342-20-445-5-260 38-486 156-663 345-40 43-74 76-76 74-4-5-42-178-56-254-6-33-17-123-25-200-49-469 35-946 237-1350 56-113 130-239 163-281l22-27 6 129c25 530 260 969 662 1236 102 68 60 63 354 37 179-16 360-2 531 41 441 110 825 128 1185 55 458-93 856-348 1143-734 141-191 272-434 346-645 3-10 8-17 11-15 6 6 35 181 51 309 8 63 17 233 21 377l6 261-58 104c-197 356-448 634-725 804-155 95-371 177-550 209-130 22-388 28-523 10z"/><path d="m3273 1180c-72-17-149-66-229-145-70-69-89-95-135-190-51-104-56-110-92-119-31-8-42-6-65 11-15 11-31 33-35 49-36 125-168 285-277 337-133 64-240 70-332 20-67-37-94-75-189-271-43-90-96-189-118-220-46-69-135-160-210-215-65-48-217-120-288-137-29-7-53-14-53-16 0-9 146-97 237-142 110-55 215-94 324-119 105-23 341-23 429 1 170 46 315 125 455 245 92 80 111 79 209-3 99-83 165-127 261-172 141-67 235-88 395-88 74 0 162 6 195 13 107 22 254 72 343 118 99 50 242 135 242 144 0 3-23 11-51 17-179 42-336 148-454 307-29 39-94 153-145 254-76 150-104 196-149 242-76 78-165 104-268 79z"/></g></svg>
