<svg height="200pt" preserveAspectRatio="xMidYMid meet" viewBox="0 0 512 512" width="512pt" fill="#6940cd" xmlns="http://www.w3.org/2000/svg"><g transform="matrix(.1 0 0 -.1 0 512)"><path d="m1120 5027c-49-16-133-102-148-153-7-23-12-67-12-98v-56h-336c-235 0-349-4-378-12-55-16-138-99-154-154-17-59-17-1049 0-1108 16-55 99-138 154-154 23-7 67-12 98-12h56v-80-80h-56c-87 0-133-18-189-75-64-63-75-100-75-244 0-105 1-113 25-136 13-14 31-25 40-25 13 0 15-54 15-480s-2-480-15-480c-9 0-27-11-40-25-25-24-25-26-25-215s0-191 25-215c23-24 29-25 160-25h135v-240-240h-135c-131 0-137-1-160-25l-25-24v-271-271l25-24 24-25h2431 2431l24 25 25 24v271 271l-25 24c-23 24-29 25-160 25h-135v1280 1280h58c87 0 144 23 195 80 24 26 49 66 55 88 17 56 17 1048 0 1104-6 22-31 62-55 88-70 78-81 80-475 80h-338v56c0 81-18 129-67 184-78 87 47 80-1537 79-991-1-1411-4-1436-12zm2855-172c21-20 25-34 25-80v-55h-1440-1440v55c0 46 4 60 25 80l24 25h1391 1391zm880-320 25-24v-511-511l-25-24-24-25h-2271-2271l-24 25-25 24v511 511l25 24 24 25h2271 2271zm-295-2535v-1280h-80-80v1175 1176l-25 24-24 25h-751-751l-24-25-25-24v-1176-1175h-1120-1120v240 240h215c286 0 265-19 265 240 0 189 0 191-25 215-13 14-31 25-40 25-13 0-15 54-15 480s2 480 15 480c9 0 27 11 40 25 24 23 25 31 25 136 0 144-11 181-75 244-65 66-99 75-269 75h-136v80 80h2000 2000zm-3705 935c21-20 25-34 25-80v-55h-320-320v55c0 46 4 60 25 80l24 25h271 271zm3385-1095v-1120h-640-640v1120 1120h640 640zm-3440 634c0-91-4-164-8-162-5 2-113 68-240 148-160 100-232 150-232 162 0 17 18 18 240 18h240zm-235-211 235-146v-105c0-57-4-102-8-100-5 2-113 68-240 148l-232 145v102c0 57 2 103 5 103s111-66 240-147zm0-400c167-104 235-152 235-165 0-17-14-18-240-18h-240v165c0 91 2 165 5 165s111-66 240-147zm315-423v-80h-320-320v80 80h320 320zm4000-1040v-160h-2320-2320v160 160h2320 2320z"/><path d="m665 4375-25-24v-351-351l25-24c24-25 26-25 216-25 230 0 255 6 325 75 86 85 98 202 32 298-19 27-19 27 0 55 66 95 54 212-32 297-70 69-95 75-325 75-190 0-192 0-216-25zm430-160c16-15 25-36 25-55s-9-40-25-55c-23-24-29-25-160-25h-135v80 80h135c131 0 137-1 160-25zm0-320c16-15 25-36 25-55s-9-40-25-55c-23-24-29-25-160-25h-135v80 80h135c131 0 137-1 160-25z"/><path d="m1471 4382c-17-13-33-59-66-192l-45-175v-207-208h80 80v160 160h120 120v-160-160h80 80v208 207l-45 175c-33 133-49 179-66 192-18 15-43 18-169 18s-151-3-169-18zm247-222 20-80h-98-98l20 80 20 80h58 58z"/><path d="m2025 4375-25-24v-376-375h80 80v160 160h64 64l31-46c41-62 70-143 78-215l6-59h78 79v38c0 66-29 175-66 250l-35 72 39 45c88 100 83 225-13 320-66 67-98 75-284 75-148 0-153-1-176-25zm350-160c16-15 25-36 25-55s-9-40-25-55c-22-23-32-25-120-25h-95v80 80h95c88 0 98-2 120-25z"/><path d="m2665 4375-25-24v-351-351l25-24c24-25 26-25 216-25 230 0 255 6 325 75 86 85 98 202 32 298-19 27-19 27 0 55 66 95 54 212-32 297-70 69-95 75-325 75-190 0-192 0-216-25zm430-160c16-15 25-36 25-55s-9-40-25-55c-23-24-29-25-160-25h-135v80 80h135c131 0 137-1 160-25zm0-320c16-15 25-36 25-55s-9-40-25-55c-23-24-29-25-160-25h-135v80 80h135c131 0 137-1 160-25z"/><path d="m3385 4375-25-24v-351-351l25-24c24-25 24-25 240-25h215v80 80h-160-160v80 80h160 160v80 80h-160-160v80 80h160 160v80 80h-215c-216 0-216 0-240-25z"/><path d="m3945 4375-25-24v-376-375h80 80v160 160h64 64l31-46c41-62 70-143 78-215l6-59h78 79v38c0 66-29 175-66 250l-35 72 39 45c88 100 83 225-13 320-66 67-98 75-284 75-148 0-153-1-176-25zm350-160c16-15 25-36 25-55s-9-40-25-55c-22-23-32-25-120-25h-95v80 80h95c88 0 98-2 120-25z"/><path d="m1225 3095-25-24v-911-911l25-24 24-25h671 671l24 25 25 24v911 911l-25 24-24 25h-671-671zm1255-775v-640h-560-560v640 640h560 560zm0-880v-80h-560-560v80 80h560 560z"/><path d="m3145 2775-25-24v-351-351l25-24 24-25h431 431l24 25 25 24v351 351l-25 24-24 25h-431-431zm775-375v-240h-320-320v240 240h320 320z"/><path d="m3120 1600v-80h80 80v80 80h-80-80z"/></g></svg>
