<svg xmlns="http://www.w3.org/2000/svg" width="4535.427" height="3023.627"style="background-color:white" fill="black" viewBox="0 0 3401.57 2267.72"><g data-name="Capa 1"><clipPath id="a"><path transform="matrix(1 0 0 -1 0 2267.72)" d="M0 2267.72h3401.57V0H0z"/></clipPath><g clip-path="url(#a)"><path d="M1575.056 1145.507c1.675 13.835 47.597 49.022 60.327 86.359 5.017 14.712 8.152 39.356 4.546 45.866-.318.573-2.075 3.506-1.24 6.61.68 2.532 3.01 4.897 4.545 4.959 5.126.203 15.83-24.745 14.049-48.758-3.072-41.418-41.874-60.971-73.963-95.036-1.445-1.534-5.561-5.948-7.438-4.958-1.341.707-.958 3.869-.826 4.958" fill="#fafafa"/><path d="M1593.236 1186.827c-8.328 2.013-8.072 43.733 1.24 80.574 6.322 25.013 11.318 26.018 16.734 45.865 15.516 56.86-9.613 106.81-6.198 107.845 2.768.84 20.421-31.644 27.271-75.615 2.554-16.39 8.457-65.51-13.635-119.002-1.955-4.733-17.202-41.65-25.412-39.667" fill="#fafafa"/><path d="M1867.454 1262.547c0 464.233-394.56 840.568-881.275 840.568-486.716 0-881.276-376.335-881.276-840.568 0-464.234 394.56-840.57 881.276-840.57 486.714 0 881.275 376.336 881.275 840.57" fill="#201b20"/><path stroke-width="11" stroke-miterlimit="10" fill="none" stroke="#fff" d="M1867.454 1262.547c0 464.233-394.56 840.568-881.275 840.568-486.716 0-881.276-376.335-881.276-840.568 0-464.234 394.56-840.57 881.276-840.57 486.714 0 881.275 376.336 881.275 840.57z"/><path d="M142.265 1829.628c79.976 88.182 181.05 154.91 291.407 198.87 112.523 44.82 232.947 67.676 353.542 75.345 123.46 7.85 247.884.57 370.106-18.02 115.856-17.622 230.361-45.056 341.523-82.174 101.301-33.826 209.321-66.56 300.716-124.345 12.956-166.825-43.16-345.956-89.544-430.718-52.334-95.637-143.4-164.595-165.119-180.48-39.402-28.818-55.055-32.526-69.12-30.72-52.526 6.748-56.394 86.999-145.919 180.48-14.377 15.012-37.745 34.327-84.48 72.959-62.329 51.522-93.493 77.283-122.88 92.16-58.28 29.506-110.344 34-161.278 38.4-63.333 5.469-112.86 9.745-172.8-11.52-89.69-31.821-139.344-98.357-153.599-119.04-32.079-46.542-21.14-58.538-57.599-122.88-32.313-57.022-70.587-124.566-119.04-134.398-83.407-16.924-188.484 138.887-238.079 245.759-42.047 90.608-78.737 220.435-79.133 348.87.435.48.86.972 1.296 1.452" fill="#fffbfc"/><path d="m689.375 1557.466 137.12 546.194h266.077l135.489-564.788zM1464.419 1777.701l2.489 170.318 37.344-6.18-6.225-173.066z" fill="#201b1f"/><path d="m1495.755 1773.98.682 14.563 70.968-26.243zM1495.755 1796.074l.682 14.564 70.968-26.243zM1495.755 1818.168l.682 14.565 70.968-26.243zM1495.755 1840.263l.682 14.565 70.968-26.243zM1495.755 1862.357l.682 14.565 70.968-26.244zM1495.755 1884.452l.682 14.564 70.968-26.243zM1495.755 1906.547l.682 14.564 70.968-26.243zM1495.755 1928.642l.682 14.564 70.968-26.243z" fill="#201b1f"/><path d="m1426.928 1936.072 278.199-32.429s5.12 11.095-20.481 19.628c-25.601 8.534-269.665 38.402-269.665 38.402zM1394.5 1985.567s84.483-11.094 115.204-5.974c30.722 5.12-53.762 17.921-53.762 17.921l-69.977 9.388 8.534-21.335M419.95 1188.519l-22.189 466.278s-5.12 49.76 192.862 88.464l-128.006 84.778 128.006 237.746 27.308-12.901L508.7 1848.312l162.141-101.365s15.361-49.761-61.443-58.976c-76.803-9.215-146.78-12.901-163.847-36.86-17.067-23.96-25.6-462.592-25.6-462.592M1521.189 1188.519l22.187 466.278s5.121 49.76-192.861 88.464l128.006 84.778-128.006 237.746-27.308-12.901 109.232-204.572-162.142-101.365s-15.36-49.761 61.443-58.976c76.804-9.215 146.781-12.901 163.848-36.86 17.067-23.96 25.601-462.592 25.601-462.592" fill="#201b1f"/><path d="M1048.828 2120.374h-181.37c-6.6 0-12-5.399-12-12v-250.179c0-6.599 5.4-12 12-12h181.37c6.6 0 12 5.401 12 12v250.179c0 6.601-5.4 12-12 12" fill="#fff"/><path d="M1093.345 1756.597c0 84.456-58.616 152.92-130.923 152.92s-130.924-68.464-130.924-152.92c0-84.456 58.617-152.921 130.924-152.921 72.307 0 130.923 68.465 130.923 152.92" fill="#fff"/><path d="M465.113 1114.26c-3.991 24.533 22.358 43.662 39.177 138.751 3.029 17.123 6.372 44.607 13.059 99.576 7.396 60.796 11.094 91.194 11.427 96.31 3.005 46.2.35 64.03 13.059 91.413 13.273 28.598 30.09 39.148 35.912 42.443 12.428 7.03 19.46 2.96 32.648 9.794 17.128 8.876 20.49 21.6 32.648 37.545 16.612 21.79 36.648 31.937 76.72 52.236 14.656 7.423 29.36 13.11 58.767 24.485 24.38 9.431 51.227 19.816 71.825 26.118 39.216 12 90.35 11.81 192.62 11.427 36.95-.138 56.277-.995 79.988-9.794 19.526-7.247 26.457-14.1 53.868-24.486 33.08-12.53 34.33-6.846 58.766-16.323 8.393-3.256 67.459-26.166 93.046-75.09 3.677-7.03 5.347-12.084 11.427-17.956 18.713-18.076 41.968-7.942 60.398-19.589 15.708-9.928 19.175-30.159 22.853-58.766 11.344-88.226 11.427-138.752 11.427-138.752.156-94.676-1.596-99.622 0-140.385 3.167-80.88 11.282-92.5 8.16-109.37-29.645-160.234-955.43-157.082-977.795-19.588M844.285 1767.817c-.447-.157-.89-.327-1.335-.488 2.217.983 4.64 1.966 7.425 2.977 7.093 2.577 12.352 3.842 20.18 4.603-8.922-1.835-17.742-4.087-26.27-7.092M446.973 1127.07c-3.826-9.029-7.84-17.99-11.887-26.938l.59 2.275c.079.3.16.597.237.896.899 2.117 1.462 4.343 1.755 6.645 1.53 5.776 3.104 11.54 4.783 17.274a21.146 21.146 0 0 1 4.522-.153" fill="#2c292a"/><path d="M864.015 1865.45c3.7-4.147 19.424 11.537 49.203 20.964 7.088 2.243 38.26 11.504 74.875 4.706 11.751-2.182 20.34-5.326 20.537-4.706.301.941-18.772 10.611-42.786 13.691-11.123 1.426-23.53-.048-48.347-2.995-30.67-3.642-38.923-7.01-45.353-13.69-5.8-6.03-10.574-15.23-8.129-17.97" fill="#201b1f"/><path d="M680.9 506.494s-142.08-28.925-142.08 57.85 19.2 367.762 19.2 367.762 61.44 24.792 130.56 16.528c69.12-8.264-161.106 13.518-147.452 53.923 13.654 40.406-58.03 14.693-40.962 60.608 17.067 45.915 122.886 181.824 131.42 222.23 8.533 40.405 109.23 62.444 119.47 88.157 10.242 25.712 133.127 150.601 131.42 178.15-1.706 27.55 17.068-67.954 17.068-67.954s30.72 1.836 58.029 1.836c27.308 0 83.63-5.51 83.63-5.51l20.482 73.465s-1.707-22.04 22.187-38.569c23.895-16.53 93.87-134.073 116.059-146.928 22.188-12.857 107.525-33.06 121.179-67.955 13.654-34.896 27.308-126.726 58.029-146.928 30.72-20.203 66.563-66.118 58.029-106.523-8.534-40.406-13.654-20.203-47.79-29.386-34.133-9.183-59.734-58.77-95.576-64.28-35.842-5.51-46.082-7.347-46.082-7.347s128.006 7.346 129.712-11.02c1.707-18.366 63.15-343.445 30.72-369.157-32.426-25.713-128.004-58.77-273.077-62.445-145.073-3.673-454.175 3.493-454.175 3.493" fill="#fff"/><path d="M765.564 743.912s-151.9 58.029-81.923 70.83c0 0 99.845-80.217 180.914-7.68 81.072 72.536 40.962 61.442 40.962 61.442s-52.909 103.259-23.04 87.898c29.867-15.361 18.774-31.575 32.428-31.575 13.654 0 32.322 6.827 30.507 2.133-1.813-4.693-42.028-5.44-38.295-13.227 3.735-7.787 20.802-12.267 34.775-7.787 13.974 4.48 15.148 4.8 15.148 4.8l-18.668-10.24s21.014-2.08 29.976 3.2c8.96 5.28 1.6.64 1.6.64v41.282s-28.162-13.761-35.523-11.841c-7.36 1.92-36.8 13.6-41.601 27.202-4.8 13.6-36.001 12-37.121 25.12-1.12 13.12-3.68 23.362 12.48 34.882s8.64 10.72 8.64 10.72-19.2 7.2-28.802-21.28c0 0-10.773-22.881 1.173-37.175 11.948-14.294 15.576-22.828 15.576-22.828s-47.577 37.975-87.045 41.816l-39.469 3.839s45.016 3.627 79.577-19.414c34.563-23.041 43.096-38.615 33.495-36.055-9.6 2.56-26.028 12.16-62.082 10.668-36.056-1.494-68.91-11.948-68.91-11.948s51.842 6.614 70.83-10.454c18.987-17.067 22.4-13.654 21.547-20.267-.854-6.614 25.601-18.134 25.601-18.134s-15.573 11.307-48.215 2.347c-32.642-8.961-59.523-23.041-67.844-32.642l-8.32-9.6-12.8 13.44s31.361 37.762 67.202 44.802c35.842 7.04 23.683 3.84 23.683 3.84s-21.122 17.28-76.805-16c0 0-19.2-10.241-24.32-20.481-5.12-10.241-13.228 22.614-36.481 7.253-23.255-15.36 36.908-58.03 36.908-58.03s-30.936 1.708-40.75 24.749l-9.814 23.04.214-18.56s5.12 5.12-13.014-2.347c-18.134-7.467-6.614-36.055-6.614-36.055s7.681-38.401 25.388-39.255c17.707-.853 21.976 6.614 49.07-7.04s16.64-15.787 40.321-21.334c23.681-5.547 29.441-4.694 29.441-4.694" fill="#2f2c2d"/><path d="M959.707 1039.072s-25.281-8.641-32.962-24.641c-7.68-16.001-34.881-61.123-42.241-7.68-7.36 53.442 20.16 25.6 35.52 26.56 15.361.96 39.683 5.76 39.683 5.76M1177.412 744.765s151.9 58.029 81.924 70.83c0 0-99.844-80.217-180.915-7.681-81.07 72.537-40.962 61.443-40.962 61.443s52.909 103.258 23.04 87.898c-29.867-15.361-18.773-31.575-32.427-31.575s-32.321 6.827-30.508 2.133c1.813-4.694 42.029-5.44 38.295-13.227-3.733-7.787-20.801-12.267-34.775-7.787-13.974 4.48-15.147 4.8-15.147 4.8l18.667-10.24s-21.014-2.08-29.974 3.2c-8.961 5.28-1.6.64-1.6.64v41.282s28.16-13.761 35.52-11.841c7.362 1.92 36.803 13.6 41.603 27.202 4.8 13.6 36.002 12 37.122 25.12 1.12 13.12 3.68 23.362-12.481 34.882-16.16 11.52-8.64 10.72-8.64 10.72s19.2 7.2 28.8-21.28c0 0 10.775-22.881-1.172-37.175-11.948-14.294-15.574-22.828-15.574-22.828s47.575 37.975 87.044 41.815l39.468 3.84s-45.015 3.627-79.577-19.414-43.095-38.615-33.495-36.055c9.6 2.56 26.028 12.16 62.083 10.667 36.055-1.493 68.91-11.947 68.91-11.947s-51.842 6.614-70.83-10.454c-18.987-17.067-22.401-13.654-21.547-20.267.853-6.614-25.602-18.135-25.602-18.135s15.574 11.308 48.216 2.348c32.64-8.961 59.522-23.041 67.843-32.642l8.32-9.601 12.8 13.44s-31.361 37.763-67.202 44.803c-35.842 7.04-23.681 3.84-23.681 3.84s21.12 17.28 76.803-16.001c0 0 19.2-10.24 24.32-20.481 5.122-10.24 13.228 22.615 36.483 7.254 23.254-15.36-36.908-58.03-36.908-58.03s30.934 1.708 40.748 24.749l9.814 23.04-.214-18.56s-5.12 5.12 13.014-2.347c18.135-7.467 6.614-36.055 6.614-36.055s-7.68-38.402-25.388-39.255c-17.707-.853-21.974 6.614-49.07-7.04-27.093-13.654-16.64-15.787-40.321-21.335-23.681-5.547-29.441-4.693-29.441-4.693" fill="#2f2c2d"/><path d="M983.27 1039.925s25.28-8.641 32.962-24.641c7.68-16.001 34.88-61.123 42.242-7.681 7.36 53.443-20.162 25.6-35.522 26.562-15.361.96-39.683 5.76-39.683 5.76" fill="#2f2c2d"/><path d="M740.817 1695.42a111.192 111.192 0 0 0-2.715-5.101c4.602 9.519 6.83 13.334 2.715 5.102" fill="#1e1a1e"/><path d="M1698.297 562.61c-24.207-39.925-75.028-74.864-126.726-76.804-43.074-1.617-78.09 20-94.724 1.28-5.47-6.157-6.416-13.823-8.726-23.12-21.72-11.233-43.324-27.523-55.371-48.717-15.678-27.578-21.803-64.98-8.202-94.414 2.379-5.148 5.259-9.896 8.404-14.43-17.363-23.617-38.912-42.013-62.758-58.373-17.156-5.745-34.402-10.895-50.492-16.714-57.046-20.63-115.608-44.958-175.527-61.496-61.032 6.656-121.5-8.87-182.842-9.683a26.134 26.134 0 0 1-5.606-.67c-33.325.474-70.271 4.161-108.296 15.283 0 0-101.51 29.69-190.301 128.858-18.725 20.914-29.015 43.522-29.015 43.522-.417.917-.78 1.76-1.147 2.608-1.401 6.481-3.35 12.64-6.632 18.098-19.105 50.193-118.19 40.152-140.708 95.353-6.842 16.773-1.2 26.3-11.094 34.135-19.821 15.698-52.902-14.277-92.164-15.36-51.093-1.41-98.202 46.505-118.618 81.923-69.297 120.217 51.53 300.12 62.295 315.747 16.466 23.903 24.92 30.586 45.229 63.15 51.412 82.438 72.502 160.432 76.804 158.727 3.19-1.264-20.607-39.844-5.12-69.123 23.512-44.454 114.925-23.777 133.126-69.123 1.444-3.599 1.407-5.074 1.707-26.454 1.616-115.759 3.478-129.234-1.707-160.434-6.576-39.562-11.88-30.604-15.361-61.443-2.365-20.949-12.321-109.138 29.014-134.833 35.445-22.033 93.17 11.478 124.593-15.36 2.415-2.064 7.953-7.283 17.067-10.24 20.715-6.725 41.074 4.345 46.082 6.826 52.274 25.896 242.663 13.033 334.522 6.827 103.235-6.975 136.748-16.719 153.607-22.188 51.218-16.613 89.982-39.579 92.164-35.84 1.312 2.247-10.828 13.781-80.217 59.735 134.047 31.725 143.366 40.961 143.366 40.961 62.823 62.264 32.97 246.342-8.533 317.454-3.916 6.71-15.68 25.685-8.534 39.256 10.735 20.386 50.39 2.461 83.63 22.187 49.032 29.1 48.029 118.72 52.91 117.766 2.166-.423-1.255-17.37 3.413-42.669 0 0 2.536-13.743 7.68-27.308 12.21-32.198 45.064-46.067 69.123-66.563 17.757-15.126 30.612-43.792 56.323-101.124 23.825-53.127 37.307-83.19 47.362-125.446 17.308-72.734 31.062-130.537 0-181.768" fill="#1d1a1e"/><path d="M762.207 1401.559c7.157-1.807 11.38 33.424 44.073 53.868 21.098 13.194 40.239 11.593 84.885 9.794 160.488-6.463 143.182 4.958 192.62-4.896 33.876-6.753 51.606-14.03 63.663-3.265 18.101 16.16 8.252 59.447-6.53 86.516-20.495 37.53-55.763 53.564-75.088 62.03-64.172 28.113-125.187 15.186-158.341 8.162-44.317-9.39-78.377-16.605-107.739-45.706-60.985-60.447-49.432-163.504-37.543-166.503" fill="#2c292a"/><path d="M479.685 645.774c6.001-1.834 10.445-57.171-24.32-87.044-31.945-27.448-75.687-15.091-88.325-11.52-44.603 12.6-79.017 50.767-93.444 90.884-14.69 40.85 4.588 46.892 38.402 216.329 7.412 37.142 11.77 63.336 33.281 88.325 18.132 21.063 31.932 22.08 55.042 52.482 17.154 22.565 20.761 36.752 32.002 37.122 13.48.443 16.153-19.7 44.802-37.122 18.475-11.235 23.252-6.441 32.001-15.361 15.564-15.867 11.9-42.72 6.401-79.364-5.655-37.672-16.47-72.492-21.76-71.683-5.34.817 4.452 36.448-16.642 58.883-2.08 2.213-14.744 15.234-32.002 14.08-19.742-1.32-31.29-20.24-34.56-25.6-6.12-10.027-8.914-20.9-8.96-52.483-.058-36.868-.117-76.072 10.24-78.083 7.593-1.475 15.87 31.1 23.04 29.44 2.224-.514 3.854-4.146 3.84-7.36-.05-11.9-22.624-13.441-28.48-31.041-1.97-5.918-1.914-13.245.64-14.401 6.72-3.042 27.17 38.277 39.681 34.242.27-.087 2.226-.748 3.2-2.56 3.797-7.063-11.1-24.614-27.84-35.202-8.906-5.631-10.988-4.65-16.322-9.28-8.52-7.398-19.129-21.708-14.72-33.282 2.27-5.96 8.593-11.41 13.76-10.56 4.534.746 7.105 6.169 8 8 10.935 22.37 52.963 84.017 59.523 81.604 2.583-.95 1.803-12.616-1.6-24.001-11.819-39.533-49.928-57.746-43.842-72.003 1.787-4.187 6.08-4.974 5.76-8.641-.51-5.862-11.78-7.272-25.92-13.76-23.614-10.835-24.093-21.54-39.683-23.361-1.178-.138-17.138-1.784-27.52 7.68-6.319 5.759-13.447 18.253-5.442 57.923 11.658 57.763 33.083 62.548 43.203 111.045 7.904 37.88-3.402 43.423 8.32 77.763 12.967 37.988 35.793 57.544 32.322 60.803-3.647 3.422-33.82-13.457-50.883-44.162-11.59-20.86-9.835-34.965-16.32-67.843-6.472-32.805-10.844-30.48-24.322-78.404-9.872-35.102-14.825-53.116-15.68-75.843-1.088-28.912-2.109-56.043 15.36-70.403 16.474-13.542 40.484-8.41 67.843-2.56 14.792 3.16 42.871 9.164 64.003 32 12.773 13.804 15.081 25.19 17.921 24.322" fill="#fff"/><path d="M421.442 1048.352c3.246-.708 6.756-4.15 7.041-7.68.896-11.139-31.236-11.7-48.643-36.482-8.648-12.312-4.44-17.475-14.08-33.921-10.444-17.82-19.057-16.863-31.362-32.002-13.314-16.381-10.813-25.761-23.68-58.882-8.013-20.622-12.26-25.422-24.322-49.923-14.993-30.453-30.923-62.81-40.322-101.764-8.813-36.528-17.292-71.669-1.92-110.725 3.87-9.83 14.624-37.156 41.602-55.683 54.407-37.363 131.596-9.274 135.046-23.681.911-3.804-3.964-7.879-8.32-11.52-28.149-23.53-75.8-7.423-87.044-3.2-28.696 10.775-46.215 28.984-55.683 39.041-4.895 5.2-20.474 22.006-30.72 45.442-23.21 53.08-5.192 108.44 5.76 142.086 16.354 50.249 28.005 44.413 43.521 98.565 8.641 30.156 8.931 45.591 23.681 71.043 12.184 21.024 16.488 18.264 36.482 49.923 12.227 19.361 17.981 32.054 32.641 48.642 13.204 14.94 10.287 6.623 27.522 23.681 3.255 3.222 7.98 8.092 12.8 7.04M1441.008 835.223c-14.805 18.61-16.64 53.762-16.64 53.762-3.65 69.883-7.726 77.415 1.28 87.044 9.657 10.327 16.44 3.904 35.841 16.64 26.013 17.078 28.328 38.147 40.962 38.403 11.066.224 13.353-16.793 30.721-38.402 21.944-27.301 38.977-26.71 58.883-46.082 21.094-20.53 24.455-43.078 34.561-84.484 34.685-142.101 63.948-158.595 47.363-209.93-6.467-20.014-16.089-49.796-42.242-65.282-12.894-7.634-30.073-11.954-55.043-30.722-10.39-7.81-9.938-8.958-15.36-11.52-24.165-11.42-60.898-1.734-75.524 20.48-5.232 7.947-1.922 8.82-10.24 34.562-8.484 26.254-16.47 39.41-14.08 40.962 2.782 1.807 12.4-16.828 34.56-32.001 23.12-15.828 46.75-18.893 60.163-20.481 24.205-2.866 38.414-4.548 49.922 3.84 19.05 13.883 17.23 45.539 15.361 78.084-.647 11.274-2.113 25.258-17.92 89.604-6.232 25.366-12.485 49.574-21.76 79.363-9.409 30.209-16.81 49.734-33.283 69.123-10.629 12.51-24.123 23.89-26.88 21.76-3.804-2.936 19.326-26.5 28.16-66.562 6.856-31.088-3.117-34.837 3.84-66.563 3.651-16.65 6.031-13.943 29.441-69.123 9.135-21.53 15.116-36.892 19.201-57.602 3.882-19.678 7.473-39.082-2.56-47.363-7.362-6.076-18.915-3.567-29.44-1.28-15.713 3.414-18.113 8.949-40.963 19.2-22.24 9.98-25.325 7.14-32 14.082-9.77 10.155-6.443 19.64-12.802 42.242-8.24 29.286-23.15 46.487-21.76 47.362 1.773 1.117 24.874-27.7 43.521-52.483 10.658-14.165 19.341-26.321 25.601-24.32 4.105 1.31 5.475 8.167 6.401 12.8.536 2.688 2.728 15.404-4.48 24.32-5.92 7.323-12.137 4.613-22.402 10.24-18.544 10.169-26.148 34.307-23.36 36.483.906.708 4.658-1.981 12.16-7.36 11.63-8.338 17.6-13.441 17.6-13.441 5.97-5.101 8.054-7.468 9.921-6.72 2.51 1.006 2.8 6.912 2.24 10.88-2.609 18.49-28.109 26.275-26.24 31.042 1.092 2.79 11.041 3.198 17.6-1.28 5.292-3.614 6.033-8.81 7.68-8.641 3.735.382 3.797 25.482 3.84 39.362.166 52.979.393 60.643-5.12 73.283-8.944 20.507-21.015 26.643-24.32 28.162-3.224 1.48-9.57 4.29-17.602 2.88-1.983-.348-9.367-1.885-15.04-8.321-3.725-4.224-4.939-8.55-6.08-12.8-2.708-10.082-.204-12.985-1.92-27.841-1.193-10.32-3.02-14.27-6.08-16.961-.81-.712-4.164-3.66-8.322-3.2-3.882.429-6.409 3.604-7.36 4.8" fill="#fff"/><path d="M1510.131 1037.792c5.32-19.462 26.375-37.191 37.122-46.082 18.926-15.659 22.094-17.318 29.121-23.361 22.136-19.035 33.473-39.337 46.082-62.404 15.78-28.865 10.5-28.207 35.842-87.043 9.148-21.238 17.77-39.74 28.161-68.484 4.041-11.174 10.468-29.759 12.161-54.721.132-1.958.513-8.041.32-18.561-.74-40.26-16.23-59.673-7.68-67.523 3.375-3.1 9.077-3.195 12.8-1.6 10.28 4.4 11.654 24.324 10.88 46.082-1.888 53.138-15.89 97.764-19.84 110.084-21.488 67.004-32.23 100.505-49.923 131.207-12.206 21.182-28.376 49.244-56.322 77.443-22.954 23.162-30.435 22.788-40.962 40.962 0 0-12.5 21.583-30.72 33.281-2.139 1.373-5.293 3.087-7.042 1.92-2.589-1.726-.655-8.803 0-11.2M546.248 1007.604l-13.654-15.361M734.417 828.182s-4.8 24.961 3.2 30.082c8 5.12-21.441-12.8-21.441-12.8zM826.26 873.944s16-11.2 18.242-17.6l2.24-6.4 10.24 9.6-3.84 10.56zM1094.753 848.343l-8.96 9.6 3.52 11.521 28.16 5.76s-16-8.64-17.92-16.32c-1.92-7.68-4.8-10.56-4.8-10.56M1208.038 825.942s2.88 17.281-1.92 27.201c-4.8 9.921-2.24 7.04-2.24 7.04l21.761-14.72zM710.095 565.77c-5.853-7.183-1.77-16.986-1.28-25.92 1.038-18.916-14.063-33.118-43.842-61.124-22.268-20.942-45.475-36.876-57.569-47.139-4.064.454-8.17-1.484-10.98-4.576-1.884-.595-3.469-1.566-4.68-2.86 3.082 10.231 42.817 41.202 76.43 75.696 27.221 27.936 33.91 41.242 31.681 53.763-2.219 12.462-12.99 22.556-9.28 26.881 1.38 1.608 3.78 1.274 19.2-1.28 16.364-2.71 20.787-3.512 20.801-4.8.025-2.286-13.885-.545-20.48-8.64" fill="#fff"/><path d="M585.93 431.15c-12.054 8.79-55.244 40.444-64.856 51.204-.822.92-2.977 3.332-2.56 3.839.818.996 11.045-5.94 17.494-10.667 15.158-11.11 29.245-24.521 43.948-32.001 2.813-1.431 8.274-3.98 11.948-1.707 0 0 2.104 1.303 2.986 4.267 3.414 11.463-49.771 32.982-72.536 78.51-5.497 10.994-10.562 26.07-8.961 26.882.953.482 4.147-4.14 11.52-14.934 23.29-34.09 22.96-34.138 26.029-37.55 4.014-4.463 15.58-17.323 30.295-25.6 2.683-1.51 10.308-5.587 18.774-13.227 1.395-1.26 5.468-2.85 6.827-6.827.947-2.774.284-5.311 0-6.4-2.584-9.891-19.703-15.413-20.908-15.788M614.305 463.366c3.095 3.268 7.716 9.286 8.107 17.494.026.543.06 1.287 0 2.134-.657 9.085-11.354 15.055-28.801 26.24-13.173 8.446-20.08 13.38-20.695 12.588-.56-.72 5.21-4.742 10.454-12.801 5.129-7.882 5.854-13.632 7.894-19.2 2.682-7.325 8.605-16.973 23.04-26.455" fill="#fafafa"/><path d="M619.977 1156.794c2.395-5.107 158.878 112.132 356.47 112.436 34.568.053 150.56.231 268.217-63.241 32.329-17.441 82.963-49.495 83.145-49.195.192.317-61.343 27.383-108.603 85.604-23.524 28.982-37.052 53.663-37.052 53.663-18.444 33.649-16.67 45.121-30.664 58.773-8.501 8.292-20.171 14.806-81.772 20.442-64.527 5.906-113.195 4.384-127.767 3.833-37.415-1.412-25.25-3.037-83.05-6.387-41.595-2.412-47.332-1.538-56.216-7.666-24.082-16.611-14.01-45.149-38.331-86.883-10.174-17.458-20.837-27.397-42.163-47.274-53.765-50.111-103.487-71.391-102.214-74.105" fill="#1c191d"/><path d="M765.206 1249.639a28.156 28.156 0 0 1 7.666-.852c8.06.232 13.947 3.994 15.758 5.11 3.998 2.467 14.874 6.613 36.627 14.907 13.866 5.287 26.563 6.506 51.958 8.943 13.85 1.33 11.29.418 42.59 2.13 42.17 2.306 42.544 3.728 58.347 2.982 11.476-.543 18.65-1.641 33.645-1.28 10.46.254 13.322.943 22.998.854 7.959-.074 11.145-.587 30.239-2.556 32.042-3.304 33.84-2.971 41.737-5.11 9.137-2.476 7.123-3.028 23.424-8.093 14.542-4.516 18.25-4.731 26.406-8.943 4.399-2.273 8.829-4.49 13.202-6.815 8.543-4.541 11.676-6.465 13.629-5.11 2.207 1.53 1.61 6.357.85 8.943-.988 3.368-2.988 5.436-4.258 6.815-4.405 4.783-7.56 10.584-11.5 15.758-8.047 10.572-8.753 11.376-10.22 14.054-2.353 4.297-2.433 5.69-5.111 12.35-1.9 4.726-5.706 14.08-11.925 23.85-5.1 8.012-7.75 12.076-12.776 14.907-7.193 4.052-14.671 3.264-17.888 2.98-20.227-1.775-12.764 4.079-70.698 4.687-25.405.265-23.971-.89-51.107-.427-22.97.393-23.848 1.219-38.33.853-19.02-.482-21.772-2.014-48.978-3.408-13.251-.68-21.261-1.09-32.793-1.278-3.49-.057-15.954-1.457-40.886-4.26-1.705-.19-6.24-.753-10.648-3.832-4.63-3.234-9.214-9.311-7.666-12.776 1.822-4.076 11.576-3.301 16.61-2.982 18.857 1.197 37.759-2.717 56.644-2.13 40.373 1.259 33.559-1.263 65.587 0 32.294 1.276 36.313 3.532 66.013 4.26 21.785.533 54.009.163 54.089-1.704.137-3.207-94.308-18.198-165.246-12.35-26.6 2.192-53.401-1.08-80.068 0-8.542.345-16.154.773-24.702-2.982-23.23-10.204-30.608-41.304-33.22-57.495" fill="#fef4f5"/><path d="M1566.549 1853.041c-24.893-16.54-31.75-52.404-23.96-79.581 6.335-22.098 25.244-48.533 41.93-46.208 21.31 2.969 28.585 51.402 31.66 71.88 3.575 23.792 7.5 49.925-6.845 59.899-12.335 8.578-32.197 1.045-42.785-5.99M1678.087 1849.618c24.893-16.54 31.75-52.404 23.96-79.58-6.335-22.099-25.245-48.533-41.93-46.209-21.31 2.97-28.586 51.402-31.661 71.88-3.574 23.792-7.5 49.925 6.845 59.9 12.336 8.577 32.198 1.044 42.786-5.99" fill="#201b1f"/><path d="M1574.25 1747.79c-5.907 5.444-15.304 14.105-18.826 29.093-3.484 14.83.935 26.692 3.423 33.373 1.966 5.277 8.465 22.01 24.816 30.805 4.585 2.467 10.016 5.291 15.402 3.423 8.957-3.107 11.241-16.917 11.98-21.393 2.269-13.725-2.31-19.477-10.268-47.919-6.541-23.379-7.476-33.892-13.692-35.084-3.708-.712-7.012 2.333-12.835 7.701M1676.227 1746.077c5.906 5.445 15.304 14.107 18.825 29.095 3.485 14.828-.934 26.692-3.423 33.372-1.965 5.278-8.465 22.01-24.815 30.805-4.586 2.467-10.016 5.291-15.403 3.423-8.957-3.106-11.24-16.917-11.979-21.392-2.269-13.725 2.31-19.478 10.268-47.92 6.541-23.379 7.476-33.892 13.691-35.084 3.709-.712 7.013 2.333 12.836 7.701" fill="#fff"/><path stroke-width="4" stroke-miterlimit="10" fill="none" stroke="#1d191d" d="m1600.777 1854.753 23.104 67.6M1639.521 1851.6l-23.104 67.602"/><path d="M1416.413 416.406c-1.855-7.622-2.867-15.48-3.31-23.422-.422-4.973-.55-9.976-.542-14.906.025-17.748.092-36.356 2.238-53.968 2.525-20.718 9.879-42.681 23.648-57.623 5.453-16.546 13.12-30.537 21.198-44.018.834-25.006-1.45-49.777-8.136-74.182-.674-2.46-.616-4.687-.04-6.635-.874-4.464-1.903-8.876-3.525-13.106-1.758-4.583-7.352-13.28-13.226-15.231-9.122 19.024-23.254 32.203-43.164 41.663-19.461 9.247-40.244 15.68-61.536 18.976-39.648 6.135-84.187 2.444-114.852-25.061a126.868 126.868 0 0 1-7.61-2.814c-40.978-16.65-80.765-35.04-123.648-46.76-43.08-11.774-87.04-14.63-131.278-8.501-38.447 5.326-78.302 17.049-108.147 42.875-.031.059-.052.116-.084.175-17.425 32.165-49.995 42.28-83.254 51.842-18.153 5.218-35.517 9.597-50.232 22.018-11.841 9.994-21.747 22.114-32.27 33.469-.25 3.422-1.984 6.766-5.751 9.085-14.525 8.944-28.958 16.405-40.306 29.516-9.401 10.863-15.888 24.052-19.655 37.874-5.195 19.064-3.812 40.764-16.3 55.304.95 8.185 2.617 15.409 5.12 21.379 18.188 43.366 74.46 9.594 91.92 0 178.595-98.134 513.7 16.067 728.4 30.325-.116-.303-.198-.616-.31-.921-2.474-1.354-4.47-3.74-5.348-7.353" fill="#1d1a1e"/><path d="M1451.509 148.287c-.674-2.46-.616-4.687-.04-6.635-.875-4.464-1.903-8.876-3.525-13.106-1.758-4.584-7.352-13.28-13.227-15.232-9.122 19.024-23.253 32.204-43.164 41.664-19.461 9.247-40.243 15.681-61.535 18.976-39.65 6.135-84.187 2.443-114.852-25.062a126.465 126.465 0 0 1-7.61-2.813c-40.978-16.65-80.765-35.04-123.65-46.76-43.08-11.774-87.037-14.63-131.276-8.5-38.447 5.325-78.302 17.048-108.147 42.874-.031.058-.053.116-.084.175-17.426 32.165-49.995 42.281-83.254 51.841-18.153 5.22-35.517 9.598-50.232 22.018-11.841 9.995-21.747 22.114-32.27 33.47-.25 3.422-1.985 6.765-5.752 9.085-14.524 8.943-28.958 16.404-40.305 29.516-9.401 10.863-15.89 24.051-19.655 37.874-5.195 19.063-3.813 40.763-16.3 55.304.95 8.185 2.617 15.41 5.12 21.378.257.611.532 1.181.803 1.761 3.553-6.102 8.184-11.497 14.72-15.572 4.849-3.023 9.54-2.179 12.936.511 8.354-4.634 19.994 2.062 18.987 10.894 3.666-4.877 7.31-9.77 11.307-14.388 3.882-4.485 8.74-4.83 12.748-2.886.028-2.525.939-5.044 2.424-7.106a13.104 13.104 0 0 1 2.784-4.699c2.207-2.405 5.49-3.445 8.657-3.586 3.05-.137 6.534 1.462 8.657 3.586.708.708 1.363 1.594 1.923 2.565 5.388-4.836 10.926-9.522 16.675-13.992 6.462-5.025 16.65-2.276 20.33 3.607a225.058 225.058 0 0 1 11.559-3.9 12.597 12.597 0 0 1 3.678-1.072c24.259-7.027 49.827-10.55 74.366-13.22 57.947-6.308 116.348-11.25 174.597-13.487 4.845-.186 8.289 2.316 10.202 5.761.536.052 1.093.093 1.614.153 1.597.181 3.218.416 4.84.703 34.43-7.436 70.725-10.51 105.772-6.617 10.628 1.181 18.429 17.104 6.179 22.814-2.742 1.28-5.536 2.46-8.341 3.618.173.044.348.08.52.124 5.079 1.294 7.858 5.122 8.515 9.385 31.872-1.2 63.913 1.221 94.325 10.203.26.077.496.184.746.273a57.642 57.642 0 0 1 10.294 2.993c9.068-.355 18.47 1.341 27.047 4.236 9.08-.104 18.335 1.076 26.164 5.074 3.436 1.755 6.413 4.287 8.76 7.266.139.054.273.117.41.173 15.092-3.675 29.233 3.222 40.307 13.565a33.489 33.489 0 0 1 3.304.14c1.619-1.5 3.547-2.907 5.89-4.172 10.664-5.754 22.286-2.237 32.374 5.056 2.884-.754 6.125-.557 9.234.91.945.446 1.853.95 2.764 1.45 4.927-1.586 10.844-.633 14.687 4.575 3.119 4.226 6.015 8.49 8.647 12.964 2.985.232 5.976.468 8.916.663-.117-.304-.2-.616-.31-.92-2.476-1.356-4.47-3.74-5.35-7.354-1.854-7.622-2.866-15.479-3.308-23.423-.424-4.972-.55-9.976-.543-14.905.025-17.749.092-36.356 2.238-53.969 2.524-20.718 9.879-42.68 23.647-57.622 5.454-16.546 13.12-30.537 21.199-44.019.834-25.006-1.45-49.776-8.136-74.18" fill="#1d1a1e"/><path d="M1145.74 383.38a357.74 357.74 0 0 0-15.606.152 13.768 13.768 0 0 1-1.986 2.907c5.806.968 11.6 1.944 17.385 2.93a13.875 13.875 0 0 1 .208-5.988" fill="#fff"/><path d="M1457.412 146.67c-.333-1.215-.356-2.318-.072-3.281l.426-1.441-.29-1.474c-.827-4.218-1.927-9.194-3.818-14.12-1.504-3.924-7.86-15.81-17.01-18.848l-5.118-1.7-2.332 4.862c-8.326 17.359-21.12 29.682-40.272 38.78-19.043 9.05-39.18 15.259-59.844 18.457-26.616 4.12-76.272 6.53-109.83-23.57l-.944-.848-1.206-.401a122.87 122.87 0 0 1-7.242-2.678c-8.965-3.642-17.874-7.37-26.77-11.09-31.319-13.101-63.705-26.65-97.57-35.905-43.799-11.97-88.79-14.88-133.73-8.66-48.156 6.672-84.566 21.167-111.313 44.31l-.866.75-.68 1.298c-15.503 28.464-42.729 38.15-79.478 48.715l-3.539 1.012c-17.584 5.018-34.193 9.755-48.95 22.21-9.165 7.739-17.195 16.683-24.959 25.332-2.606 2.903-5.208 5.804-7.85 8.655l-1.46 1.574-.156 2.14c-.13 1.805-1.066 3.218-2.858 4.32a695.048 695.048 0 0 1-6.885 4.168c-12.125 7.275-24.665 14.799-34.84 26.556-9.509 10.987-16.747 24.913-20.932 40.27-1.74 6.39-2.767 12.973-3.76 19.338-2.003 12.853-3.897 24.993-11.278 33.587l-1.746 2.034.31 2.66c1.044 8.988 2.914 16.739 5.556 23.04a51.29 51.29 0 0 0 3.048 6.113c2.01-4.583 4.44-8.9 7.53-12.772-1.594-4.315-2.834-9.404-3.653-15.285 8.181-10.893 10.288-24.401 12.33-37.491.94-6.034 1.913-12.273 3.476-18.006 3.705-13.6 10.06-25.866 18.376-35.477 8.895-10.276 20.061-16.976 31.882-24.07a681.65 681.65 0 0 0 7.005-4.24c4.453-2.741 7.352-6.783 8.331-11.542a925.72 925.72 0 0 0 6.684-7.393c7.487-8.34 15.227-16.963 23.747-24.154 12.746-10.761 28.128-15.15 44.41-19.794l3.564-1.018c31.53-9.064 67.228-19.325 86.5-53.998 24.83-21.127 58.91-34.448 104.133-40.713 43.288-5.996 86.631-3.19 128.823 8.34 33.1 9.047 65.115 22.439 96.074 35.39 8.935 3.737 17.881 7.479 26.886 11.139 2.245.91 4.522 1.765 6.781 2.543 27.673 24.175 69.837 33.305 118.92 25.71 21.837-3.38 43.112-9.94 63.23-19.498 19.14-9.094 33.174-21.628 42.708-38.185 2.2 2.438 4.321 5.767 5.337 8.419 1.38 3.59 2.284 7.4 2.977 10.797-.519 2.695-.385 5.502.4 8.368 6.075 22.178 8.686 45.35 7.972 70.787-7.457 12.52-15.015 26.343-20.53 42.64-17.125 19.276-22.589 45.795-24.324 60.037-2.234 18.345-2.26 37.66-2.284 54.7-.009 5.9.17 10.805.552 15.255.495 8.885 1.617 16.853 3.432 24.355-.447-.036-.905-.081-1.352-.12 2.47 3.69 4.784 7.46 6.865 11.45.244.468.448.935.624 1.402 1.7.124 3.42.266 5.106.378l9.515.466-3.45-8.947c-.068-.21-.137-.42-.212-.627l-.786-2.18-2.032-1.111c-1.167-.64-1.935-1.762-2.342-3.432-1.659-6.818-2.687-14.117-3.156-22.494-.363-4.27-.528-8.837-.52-14.378.021-16.696.047-35.62 2.191-53.237 1.588-13.024 6.567-37.387 22.074-54.213l.896-.974.414-1.258c5.375-16.303 13.096-30.201 20.638-42.79l.813-1.36.055-1.582c.911-27.302-1.822-52.163-8.352-76.002" fill="#fff"/><path d="M1410.698 173.276c-33.15 36.979-71.46 42.785-111.043 30.766-26.77-8.128-53.374-19.73-78.61-34.42-82.635-48.105-168.23-71.14-258.034-64.805-41.594 2.933-82.506 12.548-114.174 51.118-19.275 23.475-41.914 30.063-63.947 37.97-36.62 13.146-72.93 24.059-99.234 65.558-2.333 3.68-6.441 6.279-10.035 7.263-19.61 5.369-31.576 23.787-41.433 45.319-16.276 35.558-18.91 75.033-16.482 115.75.103 1.74.192 3.477.284 5.214a295.065 295.065 0 0 0 14.47 15.239c-3.926-42.323-2.53-85.63 15.172-126.98l-1.48 36.779 19.423-52.944c2.548 14.902.967 27.609 1.064 40.29.095 12.364 1.907 24.702 2.965 37.05 7.919-89.776 18.079-120.322 49.067-139.311l-16.24 57.642c14.344-33.706 26.517-68.574 61.169-82.703-18.464 33.847-29.508 65.535-29.953 102.685 12.68-54.814 32.286-100.237 79.243-117.012l-15.413 51.528c15.783-25.87 31.373-56.067 50.42-81.386 20.446-27.178 55.387-43.898 73.23-41.488-8.076 6.969-16.31 13.1-23.714 20.736-7.513 7.747-14.21 16.98-21.262 25.563 43.523-36.156 70.627-51.425 91.308-48.038-44.984 30.795-72.841 64.22-82.963 101.688 44.977-75.693 103.103-108.678 176.674-103.482-78.643 35.634-78.643 35.634-85.35 54.494 60.64-35.745 147.5-45.89 176.859-25.008-28.877 5.698-62.992 9.307-95.951 19.756-37.982 12.04-72.814 49.579-81.002 79.245 68.857-103.35 198.42-88.25 274.78-43.674-35.757 1.418-71.74-1.924-107.234 2.338-37.103 4.456-68.552 27.83-88.752 73.61 11.542-12.42 22.284-26.671 34.782-36.9 31.532-25.81 66.695-29.107 102.432-26.935 39.655 2.41 79.314 6.266 118.976 6.385 29.452.088 58.23-8.578 83.406-31.542 6.985-6.372 12.74-15.273 19.06-23.014l-2.478-4.344" fill="#fff"/><path d="M1430.557 122.204c2.515 14.433 8.118 29.072 6.84 43.252-2.038 22.606-17.057 40.84-37.144 55.286-18.985 13.653-41.069 22.204-66.248 25.576 37.843-14.686 70.62-33.834 87.043-71.622l-30.62 24.007-1.754-1.572 26.816-28.314c-3.328-1.019-4.662-1.742-5.002-1.487-28.63 21.492-62.87 28.248-99.727 28.23-32.717-.015-65.434-.002-98.595-1.84 13.72-1.383 27.4-3.345 41.165-4.019 24.814-1.217 49.722-1.145 74.504-2.663 11.274-.69 22.491-3.42 33.472-6.035 35.502-8.454 59.125-27.167 69.25-58.799M1435.256 228.003l-27.032 18.745-2.86-2.27c25.355-16.733 37.43-40.084 45.229-65.565 4.578 52.204-23.773 113.76-82.68 121.557 35.329-14.204 56.069-38.357 67.343-72.467M1276.212 585.866c8.344-1.625 15.011 1.865 19.157 7.302 7.141-6.715 16.341-12.231 27.62-16.636 24.598-9.607 48.415-21.317 72.581-32.087l-1.803-4.363-65.958 12.277c20.687-15.91 36.632-28.171 52.58-40.433l-2.974-3.97-99.23 34.687-2.292-3.96 40.824-37.891-2.09-3.632-59.262 28.124-3.519-5.727 68.681-50.977-.66-1.616-71.2 33.745c5.308-9.44 8.668-15.412 12.027-21.384l-3.427-2.314-29.97 32.667 14.022-54.486-6.803-3.006-32.6 56.985c-1.003-16.704-.092-33.6 6.188-48.05 6.792-15.628 17.18-30.324 28.631-42.918 10.5-11.546 24.506-19.75 36.967-29.426-65.48 21.732-94.834 72.064-104.836 137.703l-9.634-21.275-6.735 35.498-3.688.217c-3.194-15.214-6.388-30.428-9.58-45.641l-3.43.472-5.17 50.774-4.874.022c-13.549-37.922-16.362-77.32-12.274-117.803-18.01 44.863-14.746 90.789-10.478 138.192l-30-58.832-4.369 1.274 12.405 74.953c-35.214-44.118-45.155-97.066-53.458-150.77-2.759 55.758 7.532 109.102 22.863 162.153l-41.385-90.392-2.375.919 23.49 97.126c82.297 4.098 165.092-1.73 246.038-17.501M700.456 549.154c24.812 25.246 61.66 29.994 92.5 35.57 44.436 8.039 88.15 20.877 132.5 29.648 31.758 6.28 63.798 10.464 95.935 12.62-34.477-70.28-62.42-143.476-66.86-227.253-5.663 74.89 10.52 144.746 30.076 214.725l-36.13-62.63-3.003 1.935c4.685 18.04 9.37 36.082 14.057 54.124-41.593-68.921-86.062-135.555-93.364-225.01-4.04 79.897 30.586 144.968 53.648 214.479-35.085-40.774-66.217-84.131-82.406-140.541 4.86 41.457 21.602 76.803 37.985 112.37-49.934-52.297-81.718-115.808-84.46-197.664-8.05 58.826 16.463 109.585 27.237 163.587l-4.017 2.6-70.644-107.767c7.409 19.91 12.579 35.482 18.905 50.329 6.335 14.866 13.824 29.007 20.807 43.466l-4.97 5.015-17.95-27.1-2.345 2.559 17.04 32.38-1.795 1.585-32.97-30.686-2.316 3.359 15.14 24.779c-.644.897-1.29 1.793-1.935 2.69l-30.003-26.903c-.492.84-.984 1.683-1.476 2.526l13.043 19.586c-.71 1.316-1.417 2.632-2.126 3.948l-42.954-24.604-1.304 3.114 24.387 22.229-10.232 10.935M1178.378 1541.482c8.434-26.648 20.588-64.578 1.876-84.98-.213.202-.438.39-.65.593a88.254 88.254 0 0 1 1.347 6.823c2.505 15.043.962 35.75-6.068 56.188-6.755 20.469-17.86 40.575-26.565 55.54l-15 24.893 19.38-23.78c7.763-9.807 17.1-21.991 25.68-35.277M1200.922 1655.435c-.25.078-.497.162-.747.238-16.093 4.95-32.393 7.769-47.644 15.252-15.768 7.739-30.59 17.268-46.242 25.239-5.726 2.917-11.175 1.119-14.666-2.514a303.022 303.022 0 0 1-13.178 7.47c2.395-6.177 4.829-13.092 6.777-20.058 6.424-21.331 8.31-42.703 8.31-42.703s-9.637 20.613-23.295 40.03c-9.023 13.286-19.763 25.893-25.728 32.617-14.454 2.64-29.25 4.583-44.262 5.614-4.341.296-8.69.508-13.042.666 2.173-6.651 3.975-15.407 3.864-25.658-.087-11.736-2.475-25.183-6.932-39.122-4.406-13.957-10.637-28.436-16.866-42.781-6.195-14.29-11.827-28.6-15.292-42.194-3.541-13.581-4.657-26.442-3.593-37.438 1.026-11.004 4.45-20.057 7.724-26.198 1.395-3.131 3.153-5.447 4.117-7.084 1.028-1.624 1.578-2.49 1.578-2.49l-1.9 2.403c-1.173 1.584-3.247 3.829-5.058 6.898-4.103 6.01-8.79 15.003-11.315 26.169-2.567 11.147-3.16 24.383-1.373 38.423 1.71 14.05 5.528 28.888 9.863 43.56 4.33 14.613 8.558 29.132 11.006 42.682 2.508 13.546 3.009 26.1 1.705 36.607-1.283 10.518-4.472 18.927-7.426 24.594-.261.604-.552 1.044-.832 1.584a424.442 424.442 0 0 1-42.327-3.72l-3.474-3.785a172.43 172.43 0 0 1-11.371-13.814c-8.923-11.62-18.412-27.922-24.361-44.938-5.916-17.002-8.205-34.572-7.791-47.79.043-6.611.658-12.134 1.218-15.988.58-3.865.916-6.072.916-6.072l-2.243 5.948a126.808 126.808 0 0 0-4.756 15.883c-3.35 13.242-5.027 31.258-2.807 49.35 2.237 18.07 8.385 36.062 15.145 49.228a143.742 143.742 0 0 0 2.636 5.14c-17.126-4.016-33.58-9.074-48.965-15.143l-6.517-5.15a652.093 652.093 0 0 1-24.308-20.391c-19.42-17.131-43.444-40.88-61.206-66.532-18.143-25.54-28.955-52.941-32.5-73.87-1.84-10.457-2.204-19.266-2.035-25.425.108-6.163.49-9.69.49-9.69s-.867 3.49-1.83 9.648c-1.022 6.155-1.887 15.007-1.494 25.662.645 21.292 7.737 49.79 22.746 77.009 10.658 19.938 24.932 39.03 38.69 55.16-4.745-2.442-9.68-5.203-14.396-8.2-8.763-5.571-16.633-11.828-21.901-16.834-5.325-4.986-8.367-8.567-8.367-8.567s1.17 3.94 3.924 9.797c2.698 5.864 7.376 13.582 13.534 21.038 2.712 3.28 5.722 6.469 8.779 9.478-21.268-6.852-39.38-17.47-50.74-30.321-10.04-11.357-18.563-20.182-30.292-31.038-.842-.778-3.197-3.186-6.183-6.391l.087-.022s-6.713-8-15.107-20.55a212.228 212.228 0 0 1-6.166-9.674c.05-.03.052-.1.112-.124-.05.02-.11.026-.16.045-6.654-11.063-13.343-24.273-18.451-37.82-6.69-17.798-10.598-36.071-11.922-49.877-1.453-13.808-1.122-23.093-1.122-23.093s-2.28 9.159-3.758 23.094c-1.602 13.928-1.594 32.659 1.385 51.388 1.93 12.066 5.102 24.073 8.743 34.783-7.573-2.715-14.496-6.798-18.622-10.707-21.071-19.962-20.02-40.856-22.773-60.045-2.856-19.89-4.708-42.044-5.933-63.294-5.017-1.061-9.353-4.893-9.373-11.512-.091-31.372-1.853-62.687-3.39-94.011-9.243-10.19-16.792-21.716-20.741-33.867 1.806 10.556 4.065 20.84 3.527 31.75 1.706 6.586 2.285 13.723 1.897 20.91a120.848 120.848 0 0 1-.77 8.415c.34.968.59 2.008.705 3.14 4.548 44.702 9.166 89.398 14.376 134.029 4.077 34.935 10.483 78.433 52.542 85.963 1.462.263 2.716.719 3.795 1.312 15.496.846 29.087 18.01 37.86 29.675 10.623 14.122 23 28.677 37.235 40.333.317.193.634.385.95.579 30.486 18.655 59.759 32.917 94.835 40.218 4.12-1.988 9.233-1.903 13.554 2.035 6.897 6.284 14.498 11.295 22.543 15.452 58.328 19.555 121.849 20.197 183.178 20.153 1.962-2.017 4.768-3.323 8.442-3.28 36.913.438 74.48-9.72 109.61-20.352 32.163-9.735 62.095-25.375 90.232-43.572a11.436 11.436 0 0 1-1.087-2.962" fill="#fff"/><path d="M661.4 1546.924c-3.124-14.114-4.354-33.088-1.966-51.802 2.305-17.8 7.81-35.197 13.79-48.344a128.704 128.704 0 0 1-20.648-19.862 152.855 152.855 0 0 0-4.195 14.455c-3.782 14.578-6.036 34.19-4.564 53.613 1.503 19.437 6.742 38.556 12.789 52.495 2.847 6.99 5.834 12.708 8.026 16.673l3.492 6.215s-.8-2.336-2.196-6.424c-1.36-4.085-3.146-9.946-4.528-17.02M756.314 1661.965c.25.077.497.16.747.237 16.093 4.95 32.393 7.769 47.644 15.252 15.768 7.739 30.59 17.268 46.242 25.24 5.726 2.916 11.175 1.118 14.665-2.515a303.666 303.666 0 0 0 13.18 7.47c-2.396-6.176-4.83-13.092-6.778-20.058-6.424-21.33-8.31-42.703-8.31-42.703s9.638 20.613 23.295 40.032c9.023 13.284 19.763 25.89 25.728 32.615 14.454 2.64 29.25 4.583 44.262 5.614 4.341.296 8.69.508 13.042.666-2.173-6.651-3.976-15.406-3.863-25.657.087-11.736 2.474-25.184 6.931-39.123 4.406-13.957 10.637-28.435 16.866-42.781 6.195-14.29 11.827-28.6 15.292-42.194 3.542-13.581 4.658-26.442 3.592-37.438-1.025-11.004-4.45-20.057-7.723-26.198-1.394-3.131-3.153-5.446-4.117-7.084-1.028-1.624-1.578-2.49-1.578-2.49l1.9 2.403c1.173 1.584 3.247 3.829 5.058 6.898 4.103 6.012 8.79 15.003 11.315 26.169 2.567 11.147 3.16 24.383 1.373 38.423-1.71 14.05-5.528 28.888-9.863 43.56-4.33 14.613-8.558 29.132-11.006 42.682-2.508 13.546-3.009 26.1-1.705 36.607 1.283 10.518 4.472 18.927 7.425 24.594.262.604.552 1.044.833 1.585a424.74 424.74 0 0 0 42.327-3.72l3.475-3.786a172.43 172.43 0 0 0 11.37-13.814c8.923-11.62 18.412-27.922 24.361-44.937 5.916-17.002 8.205-34.573 7.791-47.79a116.462 116.462 0 0 0-1.218-15.99l-.916-6.071 2.244 5.948a126.86 126.86 0 0 1 4.755 15.883c3.35 13.242 5.027 31.259 2.807 49.35-2.236 18.07-8.385 36.062-15.145 49.228a143.742 143.742 0 0 1-2.636 5.14c17.126-4.016 33.58-9.073 48.965-15.143l6.517-5.15a653.272 653.272 0 0 0 24.308-20.391c19.42-17.131 43.444-40.88 61.206-66.532 18.143-25.54 28.956-52.941 32.5-73.87 1.84-10.457 2.205-19.265 2.035-25.424-.108-6.164-.49-9.69-.49-9.69s.867 3.489 1.83 9.647c1.023 6.155 1.888 15.007 1.495 25.663-.646 21.29-7.738 49.79-22.747 77.008-10.658 19.938-24.932 39.03-38.69 55.16 4.745-2.442 9.68-5.203 14.397-8.198 8.763-5.573 16.632-11.83 21.9-16.835 5.325-4.986 8.368-8.568 8.368-8.568s-1.17 3.94-3.924 9.798c-2.698 5.864-7.377 13.58-13.534 21.037-2.713 3.282-5.723 6.47-8.78 9.479 21.268-6.853 39.38-17.471 50.74-30.322 10.04-11.357 18.563-20.182 30.293-31.037.841-.778 3.196-3.187 6.182-6.392l-.087-.021s6.713-8 15.108-20.55a212.28 212.28 0 0 0 6.165-9.675c-.05-.03-.053-.1-.111-.124.05.022.11.026.16.046 6.654-11.064 13.342-24.274 18.45-37.821 6.69-17.798 10.599-36.07 11.923-49.877 1.453-13.807 1.121-23.093 1.121-23.093s2.28 9.16 3.758 23.095c1.602 13.927 1.594 32.658-1.385 51.387-1.93 12.066-5.101 24.073-8.742 34.783 7.572-2.714 14.495-6.798 18.621-10.707 21.071-19.962 20.02-40.855 22.774-60.045 2.855-19.89 4.708-42.044 5.933-63.294 5.016-1.061 9.353-4.893 9.373-11.512.09-31.372 1.852-62.686 3.39-94.011 9.241-10.19 16.791-21.716 20.74-33.867-1.806 10.557-4.065 20.84-3.527 31.75-1.706 6.587-2.284 13.723-1.897 20.91.151 2.822.423 5.624.77 8.415a13.628 13.628 0 0 0-.705 3.14c-4.547 44.702-9.166 89.398-14.376 134.029-4.076 34.936-10.482 78.434-52.542 85.964-1.462.262-2.716.718-3.795 1.312-15.495.845-29.087 18.009-37.86 29.674-10.622 14.122-23 28.678-37.235 40.334l-.95.579c-30.486 18.654-59.759 32.916-94.835 40.218-4.12-1.99-9.233-1.904-13.553 2.034-6.898 6.284-14.498 11.295-22.543 15.452-58.329 19.555-121.85 20.197-183.179 20.153-1.962-2.017-4.768-3.323-8.442-3.28-36.913.438-74.48-9.718-109.61-20.352-32.163-9.735-62.095-25.375-90.231-43.572.485-.905.855-1.902 1.087-2.961" fill="#fff"/><path d="M1295.836 1553.453c3.124-14.113 4.354-33.088 1.966-51.802-2.305-17.799-7.81-35.197-13.79-48.344a128.661 128.661 0 0 0 20.648-19.862 152.797 152.797 0 0 1 4.195 14.456c3.782 14.578 6.036 34.19 4.563 53.613-1.502 19.436-6.74 38.555-12.788 52.494-2.847 6.991-5.834 12.708-8.026 16.673l-3.492 6.216s.8-2.337 2.196-6.425c1.36-4.085 3.146-9.946 4.528-17.019M635.537 1386.113c-2.028-11.09-1.708-25.664 2.301-39.634 3.85-13.283 10.947-25.9 18.177-35.233-7.275-5.256-13.889-11.165-19.525-17.432-1.69 2.81-3.664 6.365-5.509 10.528-5.095 10.666-9.04 25.333-9.15 40.277-.079 14.957 3.701 30.093 8.742 41.377 2.338 5.638 4.924 10.324 6.843 13.588a9800.05 9800.05 0 0 1 3.063 5.122s-.625-1.867-1.716-5.136c-1.054-3.26-2.398-7.92-3.226-13.457" fill="#fff"/><path d="M658.445 1360.955c-.667-7.716-.143-17.934 2.097-27.82 2.146-9.405 5.8-18.426 9.43-25.148-3.277-3.495-6.23-7.465-8.712-11.71a90.343 90.343 0 0 0-2.855 7.515c-2.664 7.602-4.892 17.978-5.326 28.45-.421 10.48.964 20.984 3.04 28.76a88.528 88.528 0 0 0 2.862 9.341c.83 2.234 1.306 3.51 1.306 3.51l-.674-3.553a80.682 80.682 0 0 1-1.168-9.345M1327.174 1352.447c2.028-11.089 1.708-25.664-2.301-39.634-3.85-13.283-10.947-25.9-18.177-35.232 7.275-5.257 13.889-11.166 19.525-17.433 1.69 2.81 3.664 6.365 5.509 10.528 5.095 10.667 9.04 25.333 9.15 40.277.079 14.957-3.701 30.093-8.742 41.378-2.338 5.638-4.924 10.324-6.843 13.587a9800.05 9800.05 0 0 0-3.063 5.122s.625-1.867 1.716-5.135c1.054-3.262 2.398-7.92 3.226-13.458" fill="#fff"/><path d="M1311.612 1331.575c.667-7.716.143-17.934-2.097-27.822-2.146-9.404-5.8-18.425-9.431-25.147 3.278-3.495 6.23-7.465 8.713-11.71a90.244 90.244 0 0 1 2.855 7.516c2.664 7.602 4.892 17.978 5.326 28.448.42 10.48-.964 20.985-3.04 28.76a88.483 88.483 0 0 1-2.862 9.343l-1.306 3.508.674-3.552a80.66 80.66 0 0 0 1.168-9.344" fill="#fff"/><path d="M1037.433 697.784c-18.028 17.773-20.139 28.709-19.454 35.812 1.113 11.547 10.312 20.232 18.352 27.822 6.912 6.525 10.863 10.137 16.63 9.833 9.324-.492 12.287-10.637 25.831-15.47 9.842-3.513 18.168-1.685 22.563-1.433 35.347 2.032 66.328-83.456 117.15-94.834 46.634-10.44 93.277 45.252 105.335 36.133 5.92-4.476-2.986-19.664-8.065-28.327-4.106-7.001-36.654-60.703-87.16-58.327-12.8.602-17.173 4.355-48.058 18.499-81.306 37.233-111.134 38.755-143.124 70.292M906.07 719.328c20.058 13.678 24.123 23.945 24.87 31.037 1.213 11.53-5.58 21.922-11.518 31.005-5.105 7.81-8.045 12.157-13.418 13.047-8.688 1.44-13.386-7.877-26.804-9.817-9.75-1.409-17.069 2.094-21.07 3.247-32.178 9.27-77.303-68.003-126.343-68.669-44.997-.61-77.182 63.496-90.063 57.056-6.322-3.162-1.06-19.858 1.941-29.382 2.425-7.696 22.008-66.95 69.011-75.03 11.913-2.047 16.67.725 47.872 8.204 82.144 19.687 109.927 15.031 145.521 39.302" fill="#2f2c2d"/><path d="M2165.093 970.074c78.388 0 97.984-27.436 97.984-84.66V650.248c0-57.223-12.541-87.011-96.417-87.011h-92.498v406.837zm0-505.607c145.803 0 206.16 52.52 206.16 180.294V890.9c0 124.638-62.71 177.159-206.16 177.159h-198.324V464.467zM2619.742 756.072c78.388 0 100.337-27.436 100.337-84.659v-20.38c0-57.225-14.893-87.013-98.77-87.013h-46.25v192.052zm116.016 311.987-119.936-212.433h-39.977v212.433h-108.177V464.467h152.074c145.803 0 214.001 53.304 214.001 181.078V676.9c0 89.363-31.355 137.964-104.257 161.48l132.478 229.68zM3039.112 1011.62c0 78.388-121.502 79.172-121.502 0 0-79.958 121.502-79.173 121.502 0M2364.983 1559.853c0 132.477-62.71 188.132-206.162 188.132-143.451 0-201.458-55.655-201.458-180.293v-245.357c0-127.774 55.656-180.294 201.458-180.294 145.803 0 206.162 53.303 206.162 187.348h-108.176c0-58.791-14.11-91.715-97.985-91.715-78.389 0-93.284 32.924-93.284 90.148v234.382c0 57.224 14.896 90.147 93.284 90.147 78.39 0 97.985-32.923 97.985-92.498zM2738.883 1143.608h108.177v424.083c0 124.638-76.037 184.212-203.028 184.212-126.99 0-197.54-59.574-197.54-184.212v-424.083h108.178v418.595c0 57.224 25.083 94.066 89.362 94.066 64.28 0 94.85-36.842 94.85-94.066zM3262.51 1241.594h-124.638v504.823h-107.393v-504.823h-125.421v-96.418h357.452zM2062.526 1827.352c-1.539 6.15-4.446 9.738-8.714 10.765-11.107 2.733-30.413 6.32-57.916 10.762-3.42 42.54-5.126 77.994-5.126 106.35 0 10.764.167 21.36.512 31.778.168 3.243 0 5.723-.512 7.432-.857 2.73-2.563 4.013-5.126 3.845-4.957-.172-9.056-2.267-12.302-6.28-3.246-4.016-5.04-8.496-5.38-13.454-.344-6.318-.512-12.981-.512-19.988 0-11.275.768-29.126 2.305-53.561 1.54-23.404 2.218-41.257 2.05-53.56-4.61-.341-11.018.09-19.219 1.282-9.398 1.369-15.888 2.05-19.477 2.05-8.368 0-15.203-2.238-20.5-6.718-2.05-4.477-3.076-6.805-3.076-6.976 0-1.205.6-2.498 1.794-3.876 5.47-1.894 16.657-3.617 33.571-5.17 14.863-1.55 25.967-4.304 33.315-8.27 5.978 2.052 12.813 3.077 20.5 3.077 7.69 0 15.033-.936 22.04-2.82 2.05-.167 7.26-1.364 15.632-3.587 6.151-1.537 11.277-2.051 15.376-1.537 3.076 0 4.358 1.28 3.844 3.844 4.614 0 6.921 1.537 6.921 4.612" fill="#2c292a"/><path d="M2116.085 1843.753c-.345 15.208-2.819 39.297-7.433 72.269-4.272 31.264-6.406 55.269-6.406 72.01 0 5.293.169 10.335.514 15.12 0 1.194-.514 2.347-1.539 3.459-1.025 1.11-2.223 1.667-3.587 1.667-4.785 0-7.945-.428-9.483-1.282-6.495-3.76-9.738-10.851-9.738-21.27 0-2.05.128-5.253.385-9.61.256-4.357.384-7.56.384-9.61 0-3.416.424-8.625 1.282-15.632.852-7.005 1.281-12.386 1.281-16.145-2.395.172-5.682-.17-9.866-1.026-4.189-.852-7.22-1.281-9.098-1.281-2.223 0-4.356.345-6.407 1.024-4.1 13.498-6.495 33.405-7.175 59.71-5.81 2.393-11.449 2.136-16.915-.766-3.931-2.051-5.894-6.152-5.894-12.302 0-1.366.128-3.203.385-5.51.256-2.306.385-3.716.385-4.228.512-9.226 2.475-27.505 5.894-54.841 2.903-22.894 4.268-41.087 4.1-54.585 0-1.88 1.321-3.075 3.972-3.588 2.646-.514 4.141-1.026 4.485-1.538 1.025 1.196 3.499 2.223 7.432 3.075 3.243.685 5.21 2.223 5.895 4.612 1.364 4.274 2.048 9.058 2.048 14.352 0 3.76-.556 9.698-1.665 17.81-1.113 8.117-1.666 14.312-1.666 18.58 2.05 1.538 4.614 2.478 7.689 2.819 2.049.344 4.952.428 8.714.256 4.952-.34 7.943-.513 8.967-.513 4.27-17.94 8.03-41.171 11.277-69.705.68-5.978 2.819-8.968 6.407-8.968 9.054-.854 14.178 1.025 15.376 5.637M2220.384 1858.873c-6.322 2.563-15.632 5.555-27.934 8.97-12.3 3.42-21.615 6.406-27.933 8.969-1.537 4.445-2.65 14.351-3.331 29.727 2.73 1.024 5.894 1.537 9.48 1.537 2.565 0 6.576-.424 12.046-1.281 5.467-.853 9.483-1.28 12.045-1.28 4.78 0 8.882 1.024 12.302 3.075 2.388 3.418 3.588 5.637 3.588 6.663 0 1.196-.602 2.137-1.795 2.817-.345.172-1.537 1.37-3.588 3.589-1.37 1.537-3.075 2.222-5.126 2.049-3.587.857-10.166 1.369-19.733 1.539-8.031.172-14.438 1.196-19.22 3.075-3.247 12.644-4.867 22.64-4.867 29.983 0 4.957.679 8.885 2.048 11.789 8.03 5.636 21.952 8.032 41.772 7.175 1.366 0 2.819-.64 4.357-1.922 1.537-1.282 2.82-1.922 3.844-1.922 4.782-1.026 7.944 2.563 9.482 10.763.512 2.735.04 5.254-1.41 7.559-1.453 2.308-3.547 3.545-6.277 3.718-20.675.679-38.612-.943-53.816-4.87-4.787-1.198-9.143-3.844-13.071-7.944-3.931-4.101-6.15-8.714-6.662-13.84-1.54-14.862-1.54-28.188 0-39.977-4.786-3.242-6.921-6.406-6.407-9.482.168-1.538 1.493-2.947 3.972-4.228 2.474-1.282 3.883-2.603 4.228-3.973.34-1.365 1.025-9.482 2.05-24.344-9.57-1.879-14.268-5.466-14.095-10.765.169-4.952 3.159-8.881 8.97-11.787 5.466-2.219 10.932-4.442 16.4-6.663 6.492-3.244 14.52-6.151 24.09-8.713 8.2-2.219 16.486-4.357 24.859-6.407.852-.168 1.877-.256 3.075-.256 4.612 0 9.995 1.793 16.145 5.381.168.685.596 1.966 1.28 3.844.68 1.882 1.025 3.248 1.025 4.1 0 1.369-.601 2.479-1.793 3.332M2354.153 1862.717c-.856-6.318-5.98-11.187-15.376-14.606-1.369-.514-3.504-1.623-6.407-3.332-2.049-1.366-3.76-2.05-5.124-2.05-.685 0-1.454.172-2.307.51a155.715 155.715 0 0 0-.257 9.227c0 4.444.341 11.962 1.026 22.552.513 9.738.681 17.342.513 22.807 1.193 0 2.987-.896 5.381-2.69 2.391-1.793 3.757-2.775 4.1-2.947 5.126-2.39 9.651-6.408 13.583-12.044 3.928-5.638 5.55-11.445 4.868-17.427m-7.687 100.458c.34-1.88.512-3.673.512-5.382 0-5.126-1.625-9.65-4.87-13.582-8.712-4.27-14.267-6.407-16.657-6.407-1.369 0-2.65.257-3.844.768.168 1.709.257 3.588.257 5.639 0 3.588-.473 9.097-1.409 16.529-.94 7.43-1.41 13.03-1.41 16.786 0 5.469.681 10.418 2.05 14.864 2.051-2.396 5.254-4.914 9.611-7.562 4.355-2.646 7.386-4.996 9.097-7.047 3.076-3.587 5.293-8.457 6.663-14.606m31.777-87.645c-2.223 9.226-7.86 17.6-16.914 25.115a2362.303 2362.303 0 0 1-26.14 18.195c.513 2.564 2.263 4.484 5.254 5.767 2.987 1.28 5.851 2.52 8.586 3.715 14.178 9.226 21.27 20.162 21.27 32.802 0 9.739-3.333 18.708-9.995 26.908-5.125 6.319-12.729 12.557-22.808 18.707l-24.602 14.353a13.034 13.034 0 0 1-6.663 1.793c-5.637 0-9.57-2.308-11.787-6.92.34-14.35.68-28.617 1.024-42.796.34-17.082 1.281-31.177 2.82-42.285-3.588-2.39-5.383-5.125-5.383-8.2 0-1.538.641-2.947 1.923-4.228 1.281-1.282 3.031-2.691 5.253-4.23 2.051-25.966 2.474-49.882 1.282-71.754-8.033-1.538-13.326-5.126-15.889-10.763-.173-.681.128-1.706.897-3.075.768-1.366 1.152-2.475 1.152-3.331 3.93-2.903 8.285-4.357 13.071-4.357 2.217 0 5.124.343 8.712 1.024 5.126.858 8.457 1.37 9.994 1.538 8.202 1.024 16.402 3.588 24.603 7.688 18.451 9.57 29.298 18.879 32.546 27.933 2.22 6.495 2.82 11.96 1.794 16.4M2443.589 1925.759c-.513-6.318-1.626-13.41-3.332-21.271a880.67 880.67 0 0 1-4.868-20.5c-5.126 14.182-9.571 28.362-13.325 42.54 2.73-.512 9.905-.77 21.525-.77m37.415 48.948c1.024 2.736 1.539 5.126 1.539 7.175 0 3.42-1.455 6.407-4.358 8.97-2.906 2.563-4.868 3.757-5.894 3.588-8.372-1.537-13.671-8.284-15.89-20.245-2.393-12.981-5.211-23.832-8.455-32.546l-17.427 1.537c-6.662.857-11.875 2.907-15.632 6.15-1.882 5.299-4.357 14.696-7.432 28.19-2.907 12.469-5.725 21.952-8.456 28.446-1.37 3.076-4.273 3.928-8.714 2.563-5.637-1.882-8.63-4.444-8.968-7.69-.513-6.493 1.365-15.203 5.637-26.138 5.125-12.468 7.944-21.354 8.456-26.651.169-1.538-.94-3.243-3.331-5.126-2.394-1.877-3.588-3.331-3.588-4.357 0-.851.384-1.75 1.155-2.69.768-.936 2.56-1.706 5.38-2.308 2.819-.595 4.397-1.492 4.742-2.69 3.075-8.54 7.943-24.43 14.606-47.665 5.639-20.157 10.676-35.622 15.12-46.385 1.025-2.39 3.159-3.588 6.408-3.588 2.39 0 4.525.769 6.406 2.307 4.78 4.1 7.856 10.25 9.225 18.45a898.296 898.296 0 0 1 2.82 21.015c8.54 40.322 17.425 73.549 26.65 99.688M2540.458 1873.737c.512-3.075.68-5.807.512-8.2-.512-3.589-2.009-6.832-4.485-9.739-2.478-2.904-6.45-4.357-11.916-4.357-4.1 0-6.663 1.281-7.687 3.844-.858 4.272-1.282 9.142-1.282 14.606 0 2.223.255 7.946.768 17.171.341 7.008.341 12.73 0 17.17 14.179-10.59 22.208-20.757 24.09-30.495m54.072 115.064c.513.68.769 1.45.769 2.306 0 3.93-4.1 6.92-12.301 8.97-9.057-7.008-20.333-17.768-33.827-32.29-15.036-16.229-26.228-27.506-33.571-33.828-.513 4.445-1.454 16.06-2.82 34.852-.857 14.184-2.393 25.455-4.612 33.828-.345 0-1.41.424-3.203 1.282-1.795.853-3.292 1.11-4.485.77-7.521-1.712-11.276-6.922-11.276-15.634 0-2.562.34-5.978 1.025-10.252.681-4.952 1.11-8.027 1.282-9.224.679-9.907 1.108-21.695 1.281-35.365v-27.933c0-23.233 1.282-42.798 3.843-58.687 1.707-10.59 11.701-15.459 29.984-14.606 9.227.344 17.254 4.956 24.089 13.838 6.318 8.201 9.482 17.085 9.482 26.652 0 8.032-2.992 16.06-8.969 24.09-5.125 7.174-11.448 12.813-18.964 16.912-3.076 1.711-4.612 3.588-4.612 5.64 0 2.221 1.793 4.868 5.381 7.944 2.731 2.221 5.465 4.444 8.2 6.662.168.173 9.566 8.713 28.19 25.627 11.789 10.595 20.158 20.077 25.114 28.446" fill="#2c292a"/><path d="M2645.268 1862.717c-.857-6.318-5.981-11.187-15.377-14.606-1.37-.514-3.503-1.623-6.406-3.332-2.05-1.366-3.76-2.05-5.125-2.05-.685 0-1.454.172-2.307.51a156.604 156.604 0 0 0-.256 9.227c0 4.444.34 11.962 1.025 22.552.513 9.738.68 17.342.513 22.807 1.193 0 2.988-.896 5.38-2.69 2.392-1.793 3.758-2.775 4.1-2.947 5.127-2.39 9.652-6.408 13.585-12.044 3.928-5.638 5.55-11.445 4.868-17.427m-7.687 100.458c.339-1.88.51-3.673.51-5.382 0-5.126-1.624-9.65-4.868-13.582-8.712-4.27-14.267-6.407-16.657-6.407a9.662 9.662 0 0 0-3.844.768c.168 1.709.256 3.588.256 5.639 0 3.588-.473 9.097-1.408 16.529-.942 7.43-1.411 13.03-1.411 16.786 0 5.469.68 10.418 2.05 14.864 2.05-2.396 5.254-4.914 9.61-7.562 4.357-2.646 7.387-4.996 9.098-7.047 3.076-3.587 5.294-8.457 6.664-14.606m31.777-87.645c-2.223 9.226-7.861 17.6-16.915 25.115a2371.676 2371.676 0 0 1-26.14 18.195c.513 2.564 2.264 4.484 5.255 5.767a1469.65 1469.65 0 0 1 8.585 3.715c14.179 9.226 21.27 20.162 21.27 32.802 0 9.739-3.332 18.708-9.995 26.908-5.124 6.319-12.73 12.557-22.807 18.707-8.201 4.783-16.402 9.567-24.603 14.353a13.03 13.03 0 0 1-6.663 1.793c-5.637 0-9.57-2.308-11.787-6.92.34-14.35.68-28.617 1.024-42.796.34-17.082 1.282-31.177 2.82-42.285-3.588-2.39-5.382-5.125-5.382-8.2 0-1.538.64-2.947 1.923-4.228 1.28-1.282 3.03-2.691 5.252-4.23 2.05-25.966 2.474-49.882 1.282-71.754-8.033-1.538-13.325-5.126-15.89-10.763-.171-.681.129-1.706.898-3.075.768-1.366 1.153-2.475 1.153-3.331 3.929-2.903 8.285-4.357 13.07-4.357 2.218 0 5.125.343 8.713 1.024 5.125.858 8.457 1.37 9.994 1.538 8.202 1.024 16.4 3.588 24.602 7.688 18.452 9.57 29.299 18.879 32.546 27.933 2.219 6.495 2.819 11.96 1.795 16.4M2767.762 1858.873c-6.322 2.563-15.633 5.555-27.934 8.97-12.3 3.42-21.615 6.406-27.933 8.969-1.537 4.445-2.65 14.351-3.331 29.727 2.73 1.024 5.893 1.537 9.48 1.537 2.565 0 6.576-.424 12.046-1.281 5.466-.853 9.483-1.28 12.045-1.28 4.78 0 8.882 1.024 12.302 3.075 2.388 3.418 3.587 5.637 3.587 6.663 0 1.196-.601 2.137-1.794 2.817-.345.172-1.537 1.37-3.588 3.589-1.37 1.537-3.075 2.222-5.126 2.049-3.588.857-10.166 1.369-19.733 1.539-8.032.172-14.438 1.196-19.22 3.075-3.247 12.644-4.868 22.64-4.868 29.983 0 4.957.68 8.885 2.049 11.789 8.03 5.636 21.952 8.032 41.772 7.175 1.366 0 2.819-.64 4.357-1.922 1.537-1.282 2.82-1.922 3.844-1.922 4.78-1.026 7.943 2.563 9.482 10.763.512 2.735.04 5.254-1.41 7.559-1.453 2.308-3.547 3.545-6.277 3.718-20.675.679-38.612-.943-53.817-4.87-4.786-1.198-9.142-3.844-13.07-7.944-3.931-4.101-6.15-8.714-6.663-13.84-1.538-14.862-1.538-28.188 0-39.977-4.785-3.242-6.92-6.406-6.406-9.482.168-1.538 1.493-2.947 3.972-4.228 2.474-1.282 3.883-2.603 4.228-3.973.34-1.365 1.025-9.482 2.05-24.344-9.57-1.879-14.268-5.466-14.096-10.765.17-4.952 3.159-8.881 8.97-11.787 5.467-2.219 10.933-4.442 16.4-6.663 6.492-3.244 14.52-6.151 24.09-8.713 8.2-2.219 16.487-4.357 24.86-6.407.852-.168 1.877-.256 3.075-.256 4.612 0 9.994 1.793 16.145 5.381.167.685.596 1.966 1.28 3.844.68 1.882 1.025 3.248 1.025 4.1 0 1.369-.601 2.479-1.793 3.332M2823.884 1873.737c.513-3.075.68-5.807.513-8.2-.513-3.589-2.01-6.832-4.485-9.739-2.48-2.904-6.451-4.357-11.917-4.357-4.1 0-6.663 1.281-7.687 3.844-.857 4.272-1.282 9.142-1.282 14.606 0 2.223.255 7.946.768 17.171.342 7.008.342 12.73 0 17.17 14.18-10.59 22.209-20.757 24.09-30.495m54.073 115.064c.512.68.769 1.45.769 2.306 0 3.93-4.101 6.92-12.302 8.97-9.057-7.008-20.333-17.768-33.826-32.29-15.036-16.229-26.228-27.506-33.572-33.828-.512 4.445-1.454 16.06-2.82 34.852-.856 14.184-2.393 25.455-4.612 33.828-.344 0-1.41.424-3.203 1.282-1.794.853-3.291 1.11-4.485.77-7.52-1.712-11.276-6.922-11.276-15.634 0-2.562.34-5.978 1.025-10.252.68-4.952 1.11-8.027 1.283-9.224.679-9.907 1.108-21.695 1.28-35.365v-27.933c0-23.233 1.282-42.798 3.844-58.687 1.706-10.59 11.7-15.459 29.984-14.606 9.226.344 17.253 4.956 24.089 13.838 6.318 8.201 9.48 17.085 9.48 26.652 0 8.032-2.99 16.06-8.968 24.09-5.124 7.174-11.448 12.813-18.964 16.912-3.075 1.711-4.612 3.588-4.612 5.64 0 2.221 1.794 4.868 5.38 7.944 2.733 2.221 5.466 4.444 8.202 6.662.168.173 9.565 8.713 28.189 25.627 11.789 10.595 20.158 20.077 25.115 28.446M2983.535 1831.966c0 3.418-2.478 6.406-7.432 8.968-1.369.685-2.819.769-4.355.256-2.396-.68-3.677-1.025-3.846-1.025-1.024 0-2.049.513-3.074 1.538-9.226 9.227-13.839 20.5-13.839 33.827 0 4.958.77 9.57 2.307 13.839.68 1.882 7.175 15.119 19.476 39.722 8.201 16.4 12.301 30.327 12.301 41.77 0 9.4-2.307 18.454-6.919 27.166-1.538 2.902-5.382 6.664-11.532 11.276-4.957 3.587-9.399 5.382-13.326 5.382a12.27 12.27 0 0 1-4.357-.77c-5.126-2.221-7.688-5.041-7.688-8.456 0-2.051 1.282-4.53 3.844-7.432.681-.858 2.306-1.37 4.87-1.538 2.562-.172 4.267-1.197 5.124-3.075 3.59-7.515 5.382-15.204 5.382-23.064 0-11.104-5.51-27.204-16.529-48.306-11.019-21.1-16.529-37.968-16.529-50.613 0-10.42 2.05-19.733 6.15-27.935 4.613-9.393 11.187-16.144 19.733-20.244 3.927-1.88 7.771-2.82 11.532-2.82 7.176 0 12.557 1.968 16.145 5.895 1.705 1.88 2.562 3.76 2.562 5.639M3087.579 1843.753c-.345 15.208-2.819 39.297-7.433 72.269-4.272 31.264-6.407 55.269-6.407 72.01 0 5.293.17 10.335.515 15.12 0 1.194-.515 2.347-1.539 3.459-1.025 1.11-2.223 1.667-3.587 1.667-4.785 0-7.945-.428-9.483-1.282-6.495-3.76-9.738-10.851-9.738-21.27 0-2.05.128-5.253.385-9.61.256-4.357.384-7.56.384-9.61 0-3.416.424-8.625 1.282-15.632.852-7.005 1.281-12.386 1.281-16.145-2.395.172-5.682-.17-9.866-1.026-4.189-.852-7.22-1.281-9.099-1.281-2.222 0-4.355.345-6.406 1.024-4.1 13.498-6.495 33.405-7.175 59.71-5.81 2.393-11.449 2.136-16.914-.766-3.933-2.051-5.893-6.152-5.893-12.302 0-1.366.128-3.203.383-5.51.256-2.306.384-3.716.384-4.228.513-9.226 2.475-27.505 5.895-54.841 2.903-22.894 4.267-41.087 4.1-54.585 0-1.88 1.322-3.075 3.972-3.588 2.646-.514 4.141-1.026 4.485-1.538 1.025 1.196 3.499 2.223 7.432 3.075 3.243.685 5.209 2.223 5.894 4.612 1.365 4.274 2.049 9.058 2.049 14.352 0 3.76-.556 9.698-1.665 17.81-1.113 8.117-1.667 14.312-1.667 18.58 2.051 1.538 4.615 2.478 7.69 2.819 2.049.344 4.952.428 8.714.256 4.952-.34 7.943-.513 8.967-.513 4.27-17.94 8.03-41.171 11.277-69.705.68-5.978 2.819-8.968 6.407-8.968 9.054-.854 14.178 1.025 15.376 5.637M3170.352 1915.764c-1.197-12.468-4.528-19.9-9.995-22.294-.857-.34-1.625-.514-2.307-.514-2.05 0-4.612 1.71-7.687 5.126-3.42 3.931-6.067 6.238-7.945 6.918-1.197.514-2.906 0-5.125-1.536-2.222-1.538-3.675-2.306-4.357-2.306-.513 0-.94.17-1.28.51-5.984 5.127-8.97 13.072-8.97 23.835 0 7.348 1.706 13.582 5.126 18.707 4.779 7.007 8.797 10.507 12.045 10.507 7.515 0 14.773-4.697 21.78-14.095 6.664-8.88 9.567-17.17 8.715-24.858m20.5 15.89c-10.082 22.723-24.344 36.22-42.796 40.488-2.223.515-4.444.77-6.663.77-9.737 0-19.564-5.293-29.471-15.888-6.662-7.176-9.994-16.486-9.994-27.933 0-12.641 3.756-26.223 11.276-40.747 3.243-6.15 7.174-11.445 11.789-15.89 5.294-5.293 10.334-7.943 15.12-7.943 2.73 0 5.292 1.024 7.687 3.075 2.39 2.05 8.797 4.784 19.22 8.2 8.2 2.736 14.008 7.347 17.426 13.84 5.978 11.447 8.969 21.27 8.969 29.47 0 4.611-.856 8.8-2.562 12.557M3313.345 1855.03c3.928 1.88 5.895 4.611 5.895 8.198 0 2.396-1.026 5.64-3.076 9.738-2.562 5.471-3.931 8.546-4.1 9.227-4.101 12.646-7.99 31.865-11.66 57.66-3.676 25.8-7.392 44.763-11.15 56.892-1.023 3.415-3.93 5.126-8.711 5.126-2.222 0-4.188-.429-5.894-1.282-6.323-3.248-10.851-9.57-13.582-18.964-.172-.853-1.794-9.394-4.87-25.627-1.537-8.54-2.991-17.682-4.356-27.42-2.394 4.784-5.555 16.657-9.481 35.621-3.42 16.401-7.434 26.82-12.045 31.266-1.37 1.364-3.761 1.536-7.176.511-5.126-.684-8.546-3.76-10.25-9.225-1.026-4.782-2.051-9.566-3.075-14.352-3.075-12.3-5.511-31.433-7.305-57.403-1.793-25.968-4.228-44.932-7.304-56.892-.512-2.05-.256-4.012.769-5.894 1.026-1.878 2.475-2.904 4.357-3.076a16.955 16.955 0 0 1 4.1-.512c4.782 0 8.458 2.137 11.019 6.407 2.73 14.351 5.979 42.284 9.739 83.8 1.365-2.904 2.946-8.33 4.74-16.274 1.794-7.945 3.545-13.71 5.255-17.298a805.598 805.598 0 0 0 4.356-19.477c2.05-7.855 6.319-11.787 12.814-11.787 1.706 0 3.587.256 5.637.768.168 1.025.937 1.625 2.306 1.795 1.366.17 2.135.428 2.307.768 3.756 8.372 6.575 19.565 8.458 33.571 2.902 19.821 4.695 31.265 5.38 34.34a3445.588 3445.588 0 0 1 8.458-45.359c3.587-17.595 8.2-31.946 13.838-43.054 1.193-2.219 3.672-3.33 7.432-3.33 2.73 0 5.124.511 7.175 1.537" fill="#2c292a"/></g></g></svg>